<?xml version="1.0" encoding="utf-8"?>
<!-- Generator: Adobe Illustrator 16.0.0, SVG Export Plug-In . SVG Version: 6.00 Build 0)  -->
<!DOCTYPE svg PUBLIC "-//W3C//DTD SVG 1.1//EN" "http://www.w3.org/Graphics/SVG/1.1/DTD/svg11.dtd">
<svg version="1.1" id="图层_1" xmlns="http://www.w3.org/2000/svg" xmlns:xlink="http://www.w3.org/1999/xlink" x="0px" y="0px"
	 width="297.546px" height="297.544px" viewBox="0 0 297.546 297.544" enable-background="new 0 0 297.546 297.544"
	 xml:space="preserve">
<g>
	<path fill="#0C4994" d="M148.782,0C66.744,0,0,66.743,0,148.781c0,82.026,66.744,148.763,148.782,148.763
		c82.028,0,148.764-66.736,148.764-148.763C297.546,66.743,230.811,0,148.782,0z M148.782,295.11
		c-80.697,0-146.349-65.643-146.349-146.329c0-80.696,65.652-146.349,146.349-146.349c80.686,0,146.328,65.652,146.328,146.349
		C295.11,229.468,229.468,295.11,148.782,295.11z"/>
	<circle fill="#0C4994" cx="148.778" cy="148.771" r="9.597"/>
	<path fill="#0C4994" d="M236.72,115.859l-23.593-17.736l-43.074,8.344l8.487-24.603l-14.295-25.71l-27.157,11.564l-14.312,41.475
		l-17.06-19.651l-29.415-0.476l-3.564,29.303l28.762,33.129l-25.548,4.951l-15.117,25.234l23.593,17.738l43.074-8.344l-8.487,24.601
		l14.295,25.712l27.157-11.566l14.312-41.473l17.061,19.651l29.414,0.474l3.565-29.301l-28.766-33.131l25.551-4.951L236.72,115.859z
		 M143.845,110.686c3.152,0,5.717,2.566,5.717,5.718c0,3.152-2.565,5.719-5.717,5.719c-3.154,0-5.718-2.566-5.718-5.719
		C138.126,113.252,140.691,110.686,143.845,110.686z M112.562,136.858c0-3.151,2.565-5.716,5.717-5.716
		c3.154,0,5.718,2.564,5.718,5.716c0,3.154-2.564,5.719-5.718,5.719C115.127,142.577,112.562,140.013,112.562,136.858z
		 M123.212,174.947c-3.152,0-5.717-2.567-5.717-5.719s2.565-5.719,5.717-5.719c3.154,0,5.718,2.567,5.718,5.719
		S126.366,174.947,123.212,174.947z M153.709,186.857c-3.151,0-5.716-2.564-5.716-5.716c0-3.154,2.565-5.719,5.716-5.719
		c3.153,0,5.719,2.564,5.719,5.719C159.428,184.293,156.862,186.857,153.709,186.857z M169.401,144.313
		c-0.037,0.104-0.141,0.182-0.252,0.174l-3.512-0.069l-2.479,19.763c-0.015,0.111-0.097,0.201-0.208,0.221
		c-0.109,0.028-0.221-0.03-0.275-0.127l-1.695-3.079l-18.355,7.736c-0.033,0.013-0.067,0.021-0.102,0.021
		c-0.073,0-0.146-0.032-0.196-0.089c-0.073-0.085-0.083-0.207-0.026-0.304l1.818-3.008l-15.876-12.028
		c-0.089-0.068-0.125-0.187-0.089-0.292c0.037-0.104,0.138-0.165,0.251-0.174l3.512,0.069l2.479-19.763
		c0.015-0.111,0.097-0.201,0.209-0.221c0.109-0.03,0.22,0.028,0.275,0.127l1.696,3.079l18.354-7.736
		c0.101-0.041,0.225-0.017,0.298,0.07c0.072,0.083,0.082,0.207,0.025,0.302l-1.817,3.008l15.876,12.028
		C169.401,144.09,169.438,144.207,169.401,144.313z M168.624,128.316c0-3.153,2.564-5.719,5.719-5.719
		c3.153,0,5.718,2.565,5.718,5.719c0,3.151-2.564,5.717-5.718,5.717C171.188,134.033,168.624,131.468,168.624,128.316z
		 M179.275,166.4c-3.153,0-5.719-2.563-5.719-5.716c0-3.154,2.565-5.719,5.719-5.719c3.151,0,5.716,2.564,5.716,5.719
		C184.991,163.838,182.427,166.4,179.275,166.4z"/>
	<path fill="#0C4994" d="M148.774,50.841c-53.984,0-97.905,43.92-97.905,97.904c0,53.986,43.92,97.904,97.905,97.904
		c53.985,0,97.905-43.918,97.905-97.904C246.679,94.761,202.759,50.841,148.774,50.841z M148.774,244.059
		c-52.556,0-95.313-42.756-95.313-95.313c0-52.556,42.758-95.313,95.313-95.313c52.555,0,95.313,42.758,95.313,95.313
		C244.087,201.303,201.329,244.059,148.774,244.059z"/>
	<path fill="#0C4994" d="M108.058,266.03c-0.038,0.125,0.125,0.247,0.498,0.368l2.219,0.729c0.288,0.093,0.443,0.109,0.461,0.049
		c0.026-0.073,0.049-0.526,0.067-1.356l0.048-4.348l-2.868,3.935C108.23,265.73,108.089,265.94,108.058,266.03z"/>
	<path fill="#0C4994" d="M187.508,266.204c-0.263-0.883-0.564-1.732-0.905-2.543c-0.34-0.813-0.729-1.506-1.172-2.084
		c-0.441-0.575-0.945-0.996-1.512-1.26c-0.564-0.263-1.213-0.283-1.939-0.072c-0.666,0.202-1.146,0.542-1.436,1.036
		c-0.289,0.489-0.447,1.085-0.473,1.773c-0.025,0.692,0.051,1.453,0.225,2.291c0.176,0.834,0.396,1.7,0.664,2.604
		c0.289,0.976,0.611,1.878,0.961,2.7c0.348,0.826,0.741,1.514,1.176,2.068c0.436,0.555,0.918,0.947,1.449,1.179
		c0.531,0.23,1.13,0.247,1.796,0.048c0.644-0.189,1.118-0.518,1.425-0.991c0.311-0.47,0.49-1.049,0.545-1.733
		c0.057-0.68,0.004-1.453-0.15-2.308C188.006,268.054,187.787,267.151,187.508,266.204z"/>
	<path fill="#0C4994" d="M124.339,262.661c-0.249-0.057-0.456-0.089-0.622-0.097c-0.166-0.012-0.306,0.017-0.417,0.085
		c-0.111,0.064-0.202,0.183-0.271,0.349c-0.067,0.166-0.132,0.393-0.194,0.676l-2.239,10.429c-0.081,0.381-0.12,0.681-0.116,0.895
		c0.006,0.215,0.061,0.393,0.16,0.53c0.101,0.138,0.245,0.239,0.431,0.304c0.188,0.065,0.423,0.13,0.708,0.19
		c1.204,0.255,2.223-0.081,3.052-1.021c0.832-0.938,1.492-2.55,1.986-4.842c0.484-2.259,0.547-3.996,0.187-5.219
		C126.643,263.727,125.754,262.966,124.339,262.661z"/>
	<path fill="#0C4994" d="M87.573,256.601c-0.063,0.114,0.079,0.264,0.423,0.45l2.046,1.121c0.267,0.146,0.415,0.19,0.445,0.134
		c0.039-0.069,0.144-0.511,0.314-1.32l0.842-4.263l-3.538,3.34C87.798,256.334,87.62,256.516,87.573,256.601z"/>
	<path fill="#0C4994" d="M78.423,48.894c0.03-0.15,0.002-0.308-0.079-0.438c-0.083-0.134-0.235-0.207-0.391-0.187
		c-0.277,0.034-0.512,0.225-0.605,0.49c-0.071,0.208-0.047,0.438,0.066,0.623c0.053,0.061,0.134,0.092,0.213,0.081
		c0.194-0.026,0.378-0.093,0.544-0.198C78.304,49.181,78.395,49.047,78.423,48.894z"/>
	<path fill="#0C4994" d="M78.349,55.968c0.133,0.034,0.275,0.015,0.393-0.063c0.131-0.085,0.212-0.23,0.219-0.389
		c0.006-0.119,0.018-0.239,0.036-0.356c0.035-0.21-0.053-0.421-0.227-0.547c-0.14-0.097-0.326-0.099-0.468-0.004
		c-0.14,0.098-0.207,0.268-0.168,0.434c0.047,0.202,0.037,0.415-0.03,0.613c-0.026,0.077-0.004,0.164,0.059,0.217
		C78.217,55.917,78.28,55.95,78.349,55.968z"/>
	<path fill="#0C4994" d="M149.938,30.739c-0.01,0.062,0.024,0.122,0.081,0.143c0.109,0.04,0.224,0.061,0.341,0.061
		c0.09,0,0.162-0.073,0.162-0.162c0-0.002,0-0.006,0-0.008c-0.01-0.146-0.004-0.292,0.021-0.434
		c0.026-0.178,0.175-0.312,0.353-0.322c0.24-0.016,0.481-0.034,0.725-0.05c0.186-0.015,0.375-0.015,0.563,0
		c0.254,0.018,0.488-0.14,0.564-0.383c0.067-0.217,0.084-0.445,0.043-0.67c-0.061-0.336-0.07-0.681-0.03-1.021
		c0.024-0.215,0.053-0.425,0.081-0.64c0.012-0.089,0.008-0.182-0.01-0.271c-0.017-0.076-0.065-0.144-0.132-0.182
		c-0.105-0.061-0.235-0.057-0.335,0.008c-0.25,0.17-0.445,0.409-0.559,0.688c-0.212,0.538-0.518,1.036-0.9,1.47
		c-0.273,0.308-0.549,0.611-0.83,0.911c-0.069,0.072-0.138,0.146-0.205,0.223c-0.048,0.057-0.051,0.14-0.004,0.198
		C149.942,30.432,149.966,30.59,149.938,30.739z"/>
	<path fill="#0C4994" d="M152.211,24.772c0.055,0.064,0.091,0.14,0.109,0.223c0.071,0.336,0.194,0.658,0.362,0.955
		c0.043,0.237,0.158,0.453,0.328,0.622c0.064,0.063,0.164,0.07,0.236,0.018c0.073-0.051,0.117-0.129,0.128-0.219
		c0.149-1.358,0.162-2.729,0.036-4.093c-0.008-0.089-0.074-0.162-0.164-0.18c-0.141-0.028-0.289-0.011-0.418,0.055
		c-0.217,0.104-0.396,0.277-0.509,0.489c-0.111,0.207-0.198,0.43-0.255,0.656c-0.035,0.129-0.089,0.253-0.164,0.364
		c-0.104,0.149-0.123,0.34-0.055,0.508C151.934,24.39,152.058,24.592,152.211,24.772z"/>
	<path fill="#0C4994" d="M73.278,46.141c0.7,0.153,1.419,0.198,2.133,0.138c0.284-0.024,0.535-0.19,0.664-0.441
		c0.212-0.405,0.66-0.63,1.109-0.555c0.198,0.032,0.334,0.217,0.306,0.413c-0.055,0.372,0.059,0.744,0.304,1.026
		c0.354,0.402,0.745,0.774,1.164,1.106c0.205,0.162,0.459,0.251,0.721,0.251c0.187-0.002,0.362,0.085,0.474,0.235
		c0.385,0.512,0.812,0.994,1.275,1.439c0.385,0.37,0.638,0.855,0.721,1.384c0.067,0.438-0.01,0.885-0.223,1.273
		c-0.194,0.356-0.334,0.741-0.415,1.138c-0.051,0.239,0.105,0.472,0.344,0.522c0.051,0.008,0.103,0.01,0.154,0.004
		c0.178-0.028,0.35-0.093,0.5-0.194c0.318-0.215,0.561-0.526,0.692-0.887c0.156-0.429,0.166-0.895,0.028-1.33
		c-0.127-0.4-0.324-0.775-0.583-1.106c-0.047-0.062-0.075-0.134-0.079-0.211c-0.012-0.211,0.148-0.389,0.356-0.4
		c0.115-0.005,0.214-0.081,0.249-0.192c0.101-0.318,0.184-0.642,0.249-0.97c0.101-0.496,0.461-0.899,0.943-1.053
		c0.438-0.138,0.881-0.26,1.33-0.36c0.348-0.077,0.705,0.095,0.858,0.417c0.113,0.23,0.16,0.49,0.14,0.747
		c-0.037,0.443-0.2,0.866-0.472,1.219c-0.168,0.22-0.375,0.406-0.609,0.552c-0.229,0.145-0.366,0.397-0.36,0.666
		c0.006,0.334-0.022,0.668-0.083,0.998c-0.077,0.409,0.047,0.83,0.332,1.134c0.438,0.466,0.836,0.968,1.192,1.498
		c0.221,0.328,0.425,0.672,0.609,1.024c0.194,0.372,0.162,0.821-0.083,1.162c-0.433,0.599-0.98,1.107-1.607,1.496
		c-0.378,0.232-0.757,0.463-1.136,0.691c-0.481,0.29-0.896,0.677-1.22,1.136c-0.203,0.288-0.134,0.688,0.156,0.891
		c0.077,0.053,0.166,0.089,0.261,0.105c0.411,0.071,0.83,0.089,1.247,0.057c0.701-0.057,1.389-0.206,2.051-0.443
		c0.468-0.168,0.899-0.423,1.273-0.747c0.338-0.295,0.69-0.57,1.054-0.832c0.565-0.404,1.104-0.848,1.607-1.33
		c0.532-0.506,1.097-0.978,1.69-1.412c0.239-0.175,0.364-0.462,0.332-0.758c-0.073-0.651-0.356-1.263-0.804-1.744
		c-0.729-0.781-1.415-1.604-2.051-2.464c-0.301-0.407-0.544-0.856-0.721-1.33c-0.091-0.243-0.192-0.483-0.306-0.721
		c-0.49-1.028-1.113-1.987-1.856-2.85c-0.334-0.391-0.589-0.843-0.747-1.332c-0.257-0.781-0.66-1.504-1.192-2.132
		c-0.585-0.69-1.176-1.374-1.775-2.051c-0.602-0.684-1.326-1.246-2.134-1.664c-0.615-0.315-1.176-0.725-1.666-1.214
		c-0.158-0.156-0.344-0.279-0.55-0.364c-0.425-0.17-0.901-0.162-1.318,0.028c-0.506,0.23-0.976,0.528-1.399,0.887
		c-0.607,0.514-1.107,1.146-1.468,1.854c-0.459,0.899-0.939,1.786-1.441,2.66c-0.217,0.377-0.407,0.765-0.573,1.166
		c-0.19,0.462-0.156,0.983,0.091,1.415C73.002,45.952,73.114,46.104,73.278,46.141z M78.632,43.598h0.077
		c0.445,0,0.891,0.045,1.324,0.138c0.387,0.085,0.769,0.211,1.133,0.379c0.251,0.115,0.468,0.295,0.627,0.52
		c0.102,0.143,0.134,0.32,0.087,0.49c-0.083,0.296-0.185,0.604-0.304,0.909c-0.051,0.131-0.17,0.221-0.308,0.232
		c-0.318,0.034-0.64,0.043-0.958,0.021c-0.187-0.01-0.373-0.017-0.559-0.017c-0.185,0-0.371,0.007-0.553,0.019
		c-0.004-0.134-0.004-0.27,0-0.403c0.006-0.304-0.132-0.599-0.369-0.791c-0.105-0.087-0.154-0.227-0.119-0.358
		c0.097-0.389,0.032-0.798-0.182-1.134C78.565,43.598,78.598,43.598,78.632,43.598z"/>
	<path fill="#0C4994" d="M83.306,57.443c0.004,0.077,0.024,0.15,0.061,0.219c0.048,0.061,0.138,0.073,0.207,0.019
		c0.099-0.087,0.202-0.168,0.312-0.245c0.219-0.149,0.456-0.271,0.705-0.364c0.131-0.047,0.212-0.179,0.2-0.316
		c-0.03-0.312-0.022-0.627,0.022-0.938c0.046-0.31,0.061-0.624,0.044-0.939c-0.012-0.202-0.134-0.385-0.318-0.474
		c-0.164-0.077-0.354-0.071-0.512,0.016c-0.21,0.118-0.322,0.356-0.277,0.596c0.063,0.328,0.002,0.67-0.17,0.955
		C83.326,56.419,83.229,56.938,83.306,57.443z"/>
	<path fill="#0C4994" d="M80.041,53.096c0.006-0.004,0.01-0.008,0.017-0.011c0.135-0.085,0.245-0.204,0.317-0.346
		c0.144-0.271,0.194-0.583,0.146-0.887c-0.035-0.219-0.101-0.429-0.198-0.623c-0.104-0.209-0.259-0.387-0.452-0.519
		c-0.077-0.053-0.164-0.089-0.255-0.113c-0.124-0.028-0.253,0-0.354,0.073c-0.14,0.104-0.202,0.283-0.16,0.453
		c0.069,0.263-0.002,0.542-0.187,0.741c-0.097,0.115-0.117,0.274-0.052,0.412c0.097,0.203,0.204,0.401,0.317,0.596
		C79.356,53.173,79.743,53.27,80.041,53.096z"/>
	<path fill="#0C4994" d="M33.189,96.896c0.279,0.376,0.646,0.68,1.069,0.882c0.134,0.113,0.286,0.199,0.447,0.256
		c0.223,0.072,0.439,0.161,0.652,0.261c0.059,0.026,0.129,0.002,0.158-0.057c0.004-0.01,0.006-0.019,0.008-0.026
		c0.055-0.268,0.083-0.536,0.083-0.808c0-0.229-0.107-0.443-0.29-0.581c-0.095-0.07-0.174-0.162-0.229-0.268
		c-0.093-0.178-0.122-0.384-0.083-0.58c0.028-0.145,0.042-0.29,0.042-0.436c-0.002-0.19-0.115-0.36-0.292-0.434
		c-0.144-0.061-0.277-0.146-0.393-0.251c-0.187-0.166-0.306-0.393-0.332-0.64c-0.012-0.113-0.083-0.206-0.187-0.251
		c-0.156-0.063-0.334-0.03-0.458,0.085c-0.168,0.158-0.289,0.356-0.352,0.579c-0.057,0.202-0.069,0.413-0.041,0.621
		c0.037,0.258,0.022,0.517-0.041,0.768c-0.057,0.215-0.026,0.445,0.081,0.64C33.082,96.74,33.133,96.819,33.189,96.896z"/>
	<path fill="#0C4994" d="M148.782,6.4C70.274,6.4,6.401,70.263,6.401,148.762c0,78.508,63.873,142.381,142.381,142.381
		c78.5,0,142.363-63.873,142.363-142.381C291.146,70.263,227.282,6.4,148.782,6.4z M265.889,93.629
		c0.21-0.263,0.587-0.328,0.872-0.146c0.128,0.081,0.25,0.172,0.363,0.275c0.061,0.057,0.157,0.053,0.214-0.011
		c0.047-0.05,0.053-0.123,0.019-0.182c0.16-0.31,0.346-0.609,0.553-0.893c0.091-0.124,0.186-0.243,0.285-0.36
		c0.081-0.096,0.142-0.203,0.182-0.32c0.082-0.23,0.175-0.457,0.277-0.68c0.007-0.015,0.017-0.028,0.025-0.043
		c0.086-0.121,0.256-0.149,0.378-0.063c0.164,0.117,0.29,0.279,0.362,0.468c0.148,0.387,0.178,0.808,0.085,1.212
		c-0.055,0.233,0.011,0.479,0.17,0.656c0.2,0.225,0.32,0.51,0.341,0.81c0.014,0.219,0.008,0.439-0.021,0.658
		c-0.047,0.342-0.132,0.678-0.257,0.998c-0.1,0.255-0.324,0.441-0.596,0.489c-0.41,0.073-0.834-0.028-1.168-0.275
		c-0.223-0.166-0.423-0.359-0.596-0.574c-0.127-0.158-0.246-0.322-0.361-0.49c-0.152-0.221-0.416-0.336-0.681-0.295
		c-0.279,0.04-0.544-0.134-0.617-0.405C265.642,94.172,265.704,93.864,265.889,93.629z M262.929,91.981
		c0.185,0.006,0.355,0.107,0.445,0.27c0.076,0.131,0.076,0.293,0,0.423c-0.078,0.142-0.17,0.275-0.267,0.4
		c-0.149,0.194-0.353,0.34-0.581,0.425c-0.192,0.071-0.402,0.086-0.604,0.045c-0.338-0.068-0.689,0.017-0.959,0.23
		c-0.264-0.028-0.498,0.162-0.526,0.426c-0.004,0.048-0.002,0.099,0.008,0.149c0.047,0.174,0.2,0.302,0.383,0.313
		c0.409,0.028,0.796,0.187,1.105,0.452c0.479,0.408,0.991,0.777,1.534,1.103c0.968,0.581,1.893,1.229,2.773,1.938
		c0.625,0.506,1.234,1.032,1.826,1.581c0.438,0.407,0.613,1.026,0.451,1.601c-0.162,0.579-0.531,1.077-1.037,1.397
		c-0.255,0.164-0.538,0.279-0.834,0.34c-0.376,0.077-0.74,0.206-1.082,0.381c-0.233,0.121-0.507,0.14-0.752,0.048
		c-0.538-0.198-1.072-0.406-1.601-0.631c-0.841-0.353-1.6-0.875-2.233-1.53c-0.215-0.223-0.534-0.313-0.834-0.228
		c-0.354,0.102-0.732,0.062-1.059-0.113c-0.259-0.135-0.471-0.348-0.609-0.607c-0.248-0.469-0.623-0.857-1.082-1.125
		c-0.539-0.315-1.057-0.662-1.555-1.036c-0.211-0.162-0.5-0.17-0.721-0.024c-0.109,0.072-0.197,0.174-0.25,0.293
		c-0.09,0.205-0.074,0.441,0.045,0.632c0.1,0.156,0.205,0.306,0.316,0.451c0.195,0.251,0.475,0.428,0.789,0.494
		c0.3,0.065,0.579,0.204,0.812,0.405c0.198,0.174,0.353,0.389,0.452,0.631c0.127,0.32,0.38,0.571,0.697,0.701
		c0.399,0.161,0.79,0.34,1.173,0.538c0.149,0.079,0.257,0.219,0.294,0.385c0.05,0.234-0.049,0.476-0.25,0.607
		c-0.184,0.121-0.295,0.327-0.295,0.55c0,0.039-0.008,0.077-0.022,0.111c-0.063,0.15-0.235,0.221-0.385,0.16
		c-0.273-0.113-0.542-0.234-0.812-0.36c-0.356-0.17-0.666-0.425-0.9-0.745c-0.17-0.23-0.467-0.34-0.746-0.271
		c-0.21,0.053-0.396,0.182-0.518,0.36c-0.316,0.468-0.723,0.866-1.194,1.174c-0.223,0.142-0.479,0.221-0.745,0.223
		c-0.593,0.008-1.182,0.123-1.734,0.34c-0.559,0.217-1.123,0.421-1.692,0.607c-0.374,0.123-0.615,0.486-0.585,0.879
		c0.014,0.208,0.133,0.393,0.316,0.496c0.354,0.2,0.613,0.532,0.72,0.925c0.095,0.348,0.226,0.688,0.383,1.012
		c0.157,0.324,0.431,0.573,0.767,0.7c0.209,0.077,0.443,0.035,0.609-0.113c0.301-0.267,0.635-0.493,0.992-0.676
		c0.211-0.107,0.439-0.176,0.676-0.202c0.092-0.013,0.179,0.044,0.203,0.134c0.072,0.251,0.125,0.508,0.158,0.767
		c0.031,0.253-0.033,0.513-0.181,0.721c-0.217,0.308-0.553,0.512-0.925,0.564c-0.192,0.026-0.363,0.134-0.473,0.292
		c-0.115,0.166-0.186,0.36-0.203,0.563c-0.029,0.315-0.021,0.634,0.021,0.947c0.041,0.283-0.07,0.563-0.291,0.745
		c-0.178,0.142-0.413,0.192-0.632,0.134c-0.227-0.061-0.425-0.194-0.565-0.383c-0.186-0.253-0.391-0.494-0.609-0.723
		c-0.189-0.198-0.287-0.468-0.269-0.741c0.021-0.312-0.034-0.619-0.157-0.902c-0.213-0.486-0.447-0.962-0.701-1.427
		c-0.289-0.533-0.751-0.954-1.308-1.194c-0.372-0.16-0.714-0.383-1.015-0.654c-0.176-0.158-0.261-0.396-0.227-0.632
		c0.057-0.364,0.25-0.696,0.543-0.923c0.304-0.236,0.564-0.526,0.766-0.856c0.263-0.431,0.637-0.783,1.082-1.018
		c0.229-0.124,0.473-0.223,0.721-0.296c0.353-0.102,0.721-0.13,1.084-0.089c0.504,0.059,1.014,0.036,1.51-0.069
		c0.127-0.024,0.248-0.068,0.359-0.133c0.193-0.109,0.301-0.322,0.271-0.541c-0.021-0.172-0.164-0.306-0.338-0.315
		c-0.593-0.037-1.188-0.075-1.781-0.111c-0.83-0.057-1.625-0.362-2.277-0.881c-0.538-0.427-1.072-0.864-1.6-1.306
		c-0.131-0.109-0.191-0.283-0.157-0.451c0.021-0.105,0.085-0.196,0.179-0.249c0.131-0.073,0.279-0.111,0.429-0.111
		c0.308-0.002,0.609-0.079,0.88-0.225c0.646-0.353,1.401-0.458,2.12-0.294c0.522,0.12,1.04,0.253,1.554,0.407
		c0.217,0.061,0.448-0.045,0.541-0.249c0.148-0.326,0.298-0.647,0.451-0.97c0.141-0.291,0.373-0.53,0.662-0.676
		c0.464-0.235,1.01-0.227,1.466,0.021c0.343,0.185,0.688,0.367,1.038,0.541c0.332,0.166,0.729,0.142,1.037-0.068
		c0.153-0.104,0.261-0.268,0.293-0.45c0.045-0.251,0.021-0.506-0.068-0.745c-0.064-0.174,0.014-0.368,0.18-0.449
		c0.105-0.053,0.223-0.072,0.34-0.068c0.154,0.01,0.305,0.064,0.428,0.158c0.119,0.091,0.186,0.234,0.18,0.384
		c-0.01,0.264,0.045,0.526,0.158,0.766c0.076,0.162,0.186,0.308,0.316,0.429c0.129,0.12,0.216,0.277,0.248,0.449
		c0.037,0.203,0.053,0.405,0.045,0.609c-0.006,0.188,0.129,0.354,0.315,0.383c0.188,0.028,0.372,0.092,0.54,0.181
		c0.215,0.113,0.426,0.232,0.633,0.36c0.893,0.548,1.779,1.103,2.659,1.668c0.251,0.159,0.515,0.295,0.79,0.406
		c0.252,0.1,0.54,0.017,0.699-0.204c0.1-0.14,0.231-0.255,0.383-0.338c0.219-0.12,0.432-0.255,0.632-0.405
		c0.196-0.147,0.308-0.385,0.294-0.631c-0.008-0.105-0.047-0.211-0.113-0.292c-0.209-0.259-0.46-0.481-0.745-0.656
		c-0.394-0.238-0.771-0.502-1.132-0.791c-0.312-0.249-0.625-0.496-0.943-0.741c-0.129-0.099-0.285-0.155-0.449-0.155
		c-0.408-0.009-0.795-0.179-1.079-0.474c-0.196-0.205-0.433-0.365-0.696-0.47c-0.255-0.105-0.518-0.187-0.787-0.249
		c-0.219-0.051-0.422-0.16-0.583-0.314c-0.225-0.214-0.507-0.354-0.81-0.404c-0.302-0.049-0.592-0.158-0.854-0.313
		c-0.194-0.116-0.435-0.116-0.63,0c-0.303,0.182-0.658,0.261-1.01,0.225c-0.279-0.028-0.549-0.122-0.787-0.271
		c-0.201-0.124-0.369-0.292-0.494-0.494c-0.198-0.315-0.203-0.719-0.014-1.04c0.301-0.515,0.765-0.915,1.317-1.138
		c0.3-0.124,0.557-0.332,0.737-0.604c0.201-0.308,0.584-0.445,0.937-0.336c0.413,0.13,0.853,0.144,1.273,0.045
		c0.338-0.077,0.688-0.077,1.026,0c0.498,0.117,1.01,0.153,1.52,0.113C262.407,91.983,262.668,91.976,262.929,91.981z
		 M250.579,148.762c0,56.145-45.666,101.819-101.797,101.819c-56.13,0-101.797-45.675-101.797-101.819
		c0-56.131,45.667-101.798,101.797-101.798C204.913,46.964,250.579,92.631,250.579,148.762z M238.977,92.234
		c0.059-0.439,0.287-0.86,0.651-1.132c0.441-0.362,0.729-0.878,0.768-1.453c0.057-0.615,0.364-1.19,0.862-1.573
		c0.403-0.306,0.88-0.516,1.378-0.613c0.326-0.057,0.672-0.057,0.998,0c0.268,0.057,0.537-0.038,0.727-0.249
		c0.347-0.364,0.786-0.633,1.266-0.767c0.383-0.096,0.768-0.17,1.168-0.19c0.385-0.021,0.768-0.057,1.15-0.154
		c0.402-0.076,0.787-0.172,1.188-0.267c0.519-0.118,1.035-0.192,1.553-0.192c0.344,0,0.69-0.059,1.016-0.172
		c0.403-0.154,0.843-0.057,1.168,0.246c0.403,0.385,0.691,0.863,0.863,1.401c0.097,0.324,0.097,0.651,0.02,0.957
		c-0.097,0.403,0.077,0.824,0.401,1.055c0.192,0.134,0.479,0.096,0.613-0.097c0.136-0.154,0.269-0.306,0.44-0.441
		c0.154-0.113,0.326-0.19,0.52-0.211c0.21-0.018,0.382-0.17,0.438-0.364c0.077-0.287,0.213-0.555,0.423-0.765
		c0.288-0.326,0.594-0.613,0.92-0.901c0.23-0.192,0.402-0.421,0.536-0.67c0.095-0.21,0.021-0.461-0.192-0.555
		c-0.324-0.174-0.575-0.461-0.67-0.806c-0.077-0.251-0.115-0.498-0.077-0.767c0.077-0.48,0.325-0.921,0.71-1.228
		c0.324-0.229,0.709-0.361,1.092-0.361c0.326-0.021,0.651,0.074,0.939,0.246c0.305,0.231,0.479,0.596,0.441,0.979
		c-0.039,0.306,0.113,0.613,0.361,0.806c0.365,0.249,0.691,0.536,0.96,0.88c0.267,0.326,0.326,0.785,0.153,1.17
		c-0.135,0.306-0.325,0.575-0.557,0.804c-0.287,0.288-0.729,0.347-1.072,0.154s-0.785-0.136-1.072,0.115
		c-0.385,0.344-0.709,0.729-0.96,1.149c-0.249,0.401-0.421,0.843-0.536,1.322c-0.075,0.402-0.307,0.785-0.632,1.034
		c-0.383,0.308-0.747,0.632-1.093,0.96c-0.401,0.4-0.996,0.574-1.551,0.438c-0.309-0.076-0.613-0.095-0.9-0.038
		c-0.309,0.057-0.596-0.113-0.709-0.4c-0.098-0.231-0.192-0.462-0.27-0.711c-0.096-0.229-0.057-0.517,0.115-0.709
		c0.365-0.402,0.498-0.978,0.344-1.495c-0.057-0.17-0.153-0.306-0.287-0.401c-0.095-0.076-0.211-0.076-0.305,0
		c-0.231,0.172-0.403,0.441-0.46,0.729c-0.038,0.229-0.098,0.439-0.192,0.652c-0.077,0.19-0.249,0.324-0.459,0.344
		c-0.154,0-0.309,0-0.46,0c-0.213-0.02-0.385,0.113-0.462,0.306c-0.172,0.5-0.574,0.901-1.072,1.075
		c-0.288,0.093-0.537,0.287-0.67,0.555c-0.288,0.478-0.845,0.729-1.399,0.651c-0.595-0.115-1.206-0.02-1.745,0.268
		c-0.439,0.23-0.938,0.326-1.416,0.268c-0.422-0.037-0.845,0.097-1.168,0.346c-0.403,0.306-0.863,0.536-1.363,0.67
		c-0.268,0.077-0.536,0.192-0.803,0.328c-0.021,0-0.021,0-0.039,0.019c-0.308,0.115-0.631-0.039-0.768-0.347
		c-0.115-0.287-0.267-0.555-0.477-0.785C239.054,93.04,238.92,92.637,238.977,92.234z M221.971,39.669
		c0.138-0.294,0.317-0.569,0.532-0.814c0.174-0.2,0.383-0.37,0.613-0.497c0.19-0.107,0.422-0.111,0.615-0.019
		c0.168,0.083,0.264,0.265,0.232,0.449c-0.044,0.279-0.066,0.563-0.066,0.846c-0.023,0.084-0.01,0.171,0.043,0.239
		c0.087,0.117,0.24,0.158,0.375,0.102c0.029-0.013,0.063-0.021,0.094-0.021c0.131,0.002,0.235,0.109,0.235,0.239
		c0,0.138,0.013,0.277,0.036,0.413c0.031,0.161,0.128,0.303,0.268,0.393c0.407,0.259,0.893,0.37,1.373,0.312
		c0.382-0.045,0.767,0.04,1.09,0.247c0.154,0.097,0.233,0.279,0.201,0.457c-0.014,0.087-0.087,0.15-0.174,0.158
		c-0.356,0.021-0.713,0.032-1.071,0.036c-0.696,0.002-1.393-0.021-2.089-0.064c-0.3-0.021-0.602,0.049-0.862,0.198
		c-0.368,0.211-0.802,0.27-1.212,0.166c-0.189-0.049-0.314-0.223-0.301-0.415c0.037-0.488,0.015-0.978-0.066-1.462
		C221.782,40.305,221.829,39.971,221.971,39.669z M215.421,37.801c0.323-0.616,0.648-1.231,0.977-1.847
		c0.551-1.036,1.521-1.787,2.662-2.064c0.008-0.017,0.019-0.032,0.031-0.047c0.074-0.087,0.208-0.099,0.295-0.022
		c0.091,0.077,0.127,0.198,0.1,0.314c-0.26,1.021-0.365,2.078-0.314,3.135c0.026,0.547-0.049,1.098-0.221,1.618
		c-0.174,0.528-0.536,0.978-1.018,1.257c-0.407,0.236-0.885,0.321-1.349,0.239c-0.44-0.077-0.806-0.385-0.958-0.809
		c-0.113-0.313-0.214-0.633-0.299-0.957C215.255,38.343,215.286,38.052,215.421,37.801z M207.339,47.088
		c0.162-0.308,0.326-0.615,0.488-0.919c0.238-0.445,0.549-0.851,0.919-1.194c0.221-0.203,0.436-0.411,0.646-0.624
		c0.122-0.123,0.203-0.279,0.237-0.449c-0.036-0.381,0.097-0.757,0.364-1.032c0.172-0.181,0.348-0.356,0.524-0.532
		c0.104-0.104,0.223-0.192,0.349-0.266c0.097-0.053,0.219-0.044,0.307,0.022c0.102,0.079,0.201,0.16,0.296,0.243
		c0.085,0.074,0.196,0.107,0.308,0.095c0.092-0.01,0.183-0.016,0.275-0.021c0.13-0.004,0.232-0.113,0.23-0.242
		c0-0.024,0.004-0.051,0.008-0.075c0.039-0.208,0.24-0.346,0.448-0.306c0.208,0.038,0.411,0.102,0.603,0.19
		c0.143,0.064,0.237,0.202,0.243,0.358c0.007,0.151-0.004,0.306-0.032,0.455c-0.057,0.312,0.123,0.617,0.424,0.717
		c0.225,0.077,0.471,0.036,0.663-0.102c0.345-0.255,0.765-0.376,1.192-0.348c0.409,0.028,0.81,0.142,1.174,0.328
		c0.285,0.146,0.59,0.251,0.905,0.308c1.03,0.189,2.071,0.319,3.117,0.389c0.517,0.034,1.034,0.01,1.544-0.069
		c0.27-0.045,0.545-0.032,0.811,0.032c0.459,0.115,0.931,0.175,1.404,0.179c0.529,0,1.055,0,1.581,0
		c0.319-0.004,0.628-0.113,0.874-0.316c0.383-0.315,0.688-0.712,0.891-1.161c0.143-0.316,0.42-0.551,0.754-0.64
		c0.021-0.005,0.047-0.009,0.07-0.005c0.111,0.011,0.192,0.109,0.183,0.219c-0.019,0.179,0.111,0.332,0.287,0.349
		c0.245,0.022,0.448,0.194,0.509,0.429c0.101,0.393,0.115,0.806,0.038,1.205c-0.053,0.274-0.019,0.561,0.097,0.815
		c0.117,0.259,0.027,0.564-0.213,0.719c-0.18,0.115-0.316,0.285-0.389,0.483c-0.008,0.021-0.016,0.041-0.023,0.061
		c-0.15,0.308-0.522,0.439-0.832,0.292c-0.324-0.158-0.672-0.255-1.028-0.292c-0.292-0.032-0.559-0.178-0.739-0.408
		c-0.146-0.187-0.368-0.294-0.604-0.294c-0.809,0.002-1.621,0.01-2.431,0.032c-0.185,0.006-0.354,0.096-0.462,0.245
		c-0.097,0.142-0.123,0.32-0.068,0.481c0.158,0.458,0.221,0.947,0.182,1.43c-0.04,0.522-0.052,1.044-0.037,1.566
		c0.014,0.511-0.229,0.994-0.646,1.288c-0.146,0.104-0.251,0.257-0.293,0.431c-0.1,0.398-0.324,0.757-0.646,1.017
		c-0.366,0.297-0.775,0.54-1.213,0.723c-0.376,0.157-0.789,0.206-1.191,0.137c-0.243-0.04-0.46-0.174-0.607-0.372
		c-0.127-0.17-0.306-0.3-0.508-0.37c-0.039-0.015-0.075-0.034-0.107-0.059c-0.148-0.122-0.17-0.341-0.049-0.49
		c0.119-0.146,0.3-0.23,0.488-0.232c0.271-0.002,0.538,0.059,0.783,0.176c0.164,0.079,0.35,0.1,0.527,0.057
		c0.301-0.068,0.535-0.304,0.605-0.604c0.057-0.238,0.225-0.437,0.449-0.53c0.252-0.101,0.434-0.319,0.49-0.585
		c0.024-0.115,0.004-0.232-0.059-0.334c-0.076-0.121-0.105-0.267-0.078-0.408c0.037-0.207,0.125-0.401,0.254-0.567
		c0.229-0.296,0.296-0.685,0.177-1.036c-0.097-0.288-0.215-0.569-0.353-0.84c-0.202-0.403-0.532-0.725-0.939-0.92
		c-0.504-0.24-1.036-0.427-1.582-0.548c-0.713-0.158-1.426-0.308-2.141-0.449c-0.896-0.183-1.821-0.142-2.699,0.117
		c-0.509,0.147-0.945,0.474-1.233,0.919c-0.403,0.623-1.077,1.021-1.817,1.072c-0.298,0.022-0.592,0.069-0.881,0.138
		c-0.346,0.085-0.664,0.26-0.919,0.509c-0.208,0.202-0.476,0.334-0.763,0.37c-0.242,0.032-0.486,0.021-0.723-0.036
		c-0.053-0.015-0.102-0.032-0.148-0.057C207.291,47.784,207.173,47.397,207.339,47.088z M201.234,56.577
		c0.024-0.105,0.111-0.187,0.219-0.198c0.123-0.015,0.247,0.028,0.336,0.117c0.294,0.3,0.583,0.604,0.868,0.909
		c0.48,0.514,0.953,1.034,1.424,1.561c0.497,0.559,1.108,1.002,1.795,1.302c0.636,0.277,1.355,0.283,1.996,0.016
		c0.414-0.172,0.791-0.427,1.107-0.751c0.204-0.208,0.312-0.493,0.295-0.789c-0.02-0.348-0.244-0.649-0.572-0.77
		c-0.632-0.229-1.248-0.506-1.836-0.83c-0.58-0.315-1.122-0.691-1.619-1.123c-0.679-0.589-1.392-1.136-2.135-1.638
		c-0.178-0.121-0.344-0.261-0.493-0.417c-0.114-0.115-0.257-0.198-0.415-0.238c-0.172-0.045-0.302-0.183-0.336-0.356
		c-0.043-0.219-0.115-0.432-0.217-0.632c-0.094-0.178-0.094-0.393,0-0.57c0.102-0.203,0.268-0.361,0.474-0.454
		c0.298-0.138,0.62-0.21,0.947-0.219c0.241-0.004,0.481,0.028,0.71,0.1c0.252,0.077,0.394,0.342,0.316,0.593
		c-0.034,0.115-0.061,0.235-0.079,0.354c-0.03,0.213,0.042,0.425,0.198,0.573c0.541,0.514,1.079,1.025,1.619,1.538
		c0.668,0.636,1.438,1.153,2.275,1.538c0.563,0.26,1.145,0.476,1.737,0.652c0.327,0.097,0.681,0.068,0.987-0.079
		c0.311-0.147,0.471-0.498,0.377-0.828c-0.051-0.178-0.162-0.332-0.316-0.436c-0.214-0.142-0.361-0.362-0.414-0.613
		c-0.059-0.272,0.07-0.555,0.315-0.688c0.338-0.19,0.649-0.422,0.927-0.692c0.311-0.304,0.703-0.509,1.128-0.592
		c0.319-0.064,0.611-0.23,0.828-0.474c0.149-0.17,0.136-0.427-0.032-0.576c-0.015-0.015-0.031-0.026-0.047-0.035
		c-0.184-0.123-0.344-0.277-0.474-0.455c-0.235-0.324-0.472-0.646-0.71-0.968c-0.233-0.313-0.582-0.52-0.969-0.572
		c-0.259-0.035-0.498-0.162-0.672-0.354c-0.168-0.204-0.213-0.486-0.115-0.735c0.006-0.214,0.136-0.404,0.334-0.489
		c0.162-0.057,0.326-0.102,0.494-0.138c0.279-0.057,0.564-0.077,0.848-0.059c0.393,0.026,0.777,0.105,1.146,0.236
		c0.52,0.187,1.027,0.403,1.521,0.652c0.533,0.267,0.994,0.659,1.342,1.146c0.252,0.344,0.438,0.732,0.553,1.144
		c0.105,0.375,0.033,0.777-0.195,1.091c-0.126,0.17-0.264,0.328-0.416,0.474c-0.151,0.146-0.309,0.284-0.473,0.413
		c-0.207,0.164-0.441,0.285-0.693,0.356c-0.359,0.104-0.716,0.223-1.066,0.356c-0.295,0.113-0.564,0.287-0.789,0.514
		c-0.268,0.268-0.447,0.611-0.514,0.986c-0.065,0.37-0.1,0.747-0.1,1.123c0.002,0.36-0.143,0.702-0.396,0.954
		c-0.148,0.146-0.227,0.346-0.219,0.552c0.012,0.277,0,0.555-0.039,0.83c-0.023,0.166,0.077,0.324,0.237,0.375
		c0.19,0.059,0.393,0.079,0.593,0.059c0.344-0.036,0.694-0.002,1.026,0.099c0.13,0.039,0.241,0.124,0.315,0.237
		c0.084,0.125,0.168,0.251,0.258,0.376c0.127,0.177,0.162,0.403,0.1,0.611c-0.023,0.073,0.018,0.15,0.088,0.171
		c0.017,0.004,0.033,0.008,0.049,0.008c0.183-0.013,0.362,0.016,0.533,0.077c0.129,0.048,0.23,0.149,0.277,0.277
		c0.066,0.184,0.131,0.368,0.197,0.553c0.065,0.186,0.019,0.393-0.119,0.532c-0.123,0.125-0.322,0.134-0.453,0.02
		c-0.158-0.133-0.33-0.244-0.514-0.336c-0.284-0.138-0.582-0.242-0.889-0.315c-0.262-0.061-0.509-0.168-0.731-0.315
		c-0.368-0.245-0.712-0.522-1.028-0.832c-0.2-0.194-0.404-0.385-0.613-0.571c-0.123-0.113-0.316-0.102-0.428,0.024
		c-0.01,0.01-0.018,0.021-0.025,0.032c-0.086,0.132-0.201,0.239-0.336,0.316c-0.537,0.312-1.057,0.647-1.561,1.008
		c-0.401,0.287-0.859,0.489-1.343,0.591s-0.964,0.215-1.44,0.336c-0.264,0.069-0.541,0.008-0.752-0.158
		c-0.502-0.393-1.002-0.787-1.502-1.182c-0.549-0.438-1.057-0.919-1.52-1.441c-0.328-0.372-0.626-0.768-0.889-1.187
		c-0.16-0.251-0.268-0.534-0.316-0.827C201.169,57.144,201.176,56.856,201.234,56.577z M147.695,30.574
		c0.102-0.288,0.271-0.549,0.498-0.758c0.369-0.34,0.654-0.761,0.828-1.232c0.172-0.464,0.419-0.895,0.733-1.277
		c0.099-0.121,0.117-0.289,0.044-0.429c-0.162-0.309-0.284-0.636-0.364-0.977c-0.073-0.299-0.111-0.606-0.118-0.914
		c-0.006-0.228-0.055-0.448-0.144-0.652c-0.008-0.021-0.014-0.04-0.021-0.061c-0.042-0.183,0.071-0.366,0.255-0.409
		c0.411-0.097,0.755-0.376,0.939-0.757c0.098-0.204,0.188-0.413,0.273-0.623c0.057-0.143,0.072-0.296,0.053-0.445
		c-0.006-0.102-0.024-0.203-0.059-0.3c-0.249-0.441-0.533-0.862-0.844-1.262c-0.166-0.221-0.187-0.518-0.053-0.759
		c0.051-0.093,0.113-0.178,0.186-0.251c0.125-0.128,0.311-0.174,0.48-0.121c0.188,0.061,0.385,0.085,0.58,0.076
		c0.096-0.002,0.187,0.045,0.241,0.122c0.049,0.072,0.063,0.164,0.034,0.247c-0.021,0.068-0.006,0.146,0.043,0.198
		c0.113,0.125,0.261,0.212,0.423,0.255c0.247,0.066,0.509,0.053,0.747-0.036c0.227-0.087,0.389-0.288,0.425-0.528
		c0.026-0.183,0.075-0.362,0.144-0.532c0.055-0.136,0.126-0.266,0.207-0.387c0.117-0.173,0.291-0.302,0.492-0.362
		c0.149-0.045,0.295-0.102,0.438-0.166c0.202-0.096,0.401-0.199,0.593-0.313c0.215-0.123,0.393-0.302,0.517-0.514
		c0.14-0.239,0.441-0.324,0.685-0.194c0.221,0.117,0.344,0.36,0.31,0.607c-0.036,0.271-0.022,0.546,0.038,0.812
		c0.033,0.138,0.115,0.257,0.232,0.336c0.124,0.083,0.266,0.132,0.416,0.142c0.255,0.019,0.453,0.232,0.451,0.492
		c-0.004,0.328-0.006,0.655-0.006,0.985c-0.002,0.407-0.027,0.816-0.071,1.221c-0.069,0.611-0.161,1.217-0.281,1.818
		c-0.069,0.348-0.118,0.702-0.142,1.057c-0.028,0.421-0.028,0.846,0,1.267c0.014,0.19,0.087,0.373,0.213,0.519
		c0.368,0.429,0.736,0.86,1.103,1.291c0.171,0.198,0.337,0.401,0.494,0.611c0.099,0.13,0.155,0.284,0.164,0.445
		c0.01,0.168-0.071,0.328-0.21,0.424c-0.154,0.103-0.288,0.229-0.399,0.374c-0.177,0.23-0.413,0.411-0.683,0.519
		c-0.414,0.164-0.797,0.402-1.127,0.704c-0.185,0.166-0.322,0.381-0.4,0.615c-0.183,0.555-0.277,1.134-0.281,1.717
		c-0.005,0.519,0.033,1.036,0.117,1.549c0.053,0.332,0.027,0.672-0.071,0.993c-0.413,1.324-0.891,2.628-1.433,3.903
		c-0.27,0.631-0.482,1.283-0.637,1.949c-0.176,0.759-0.348,1.519-0.516,2.277c-0.089,0.395-0.334,0.734-0.682,0.939
		c-0.025,0.016-0.051,0.023-0.08,0.023c-0.088,0-0.164-0.068-0.166-0.159c-0.021-1.075,0.043-2.15,0.191-3.215
		c0.208-1.514,0.199-3.051-0.025-4.561c-0.057-0.376-0.057-0.759,0-1.136c0.063-0.415,0.071-0.836,0.025-1.253
		c-0.035-0.3-0.035-0.599,0-0.898c0.021-0.198,0.086-0.393,0.188-0.567c0.172-0.289,0.18-0.647,0.024-0.945
		c-0.071-0.135-0.168-0.255-0.283-0.354c-0.128-0.109-0.312-0.118-0.449-0.024c-0.219,0.149-0.425,0.315-0.616,0.498
		c-0.166,0.155-0.323,0.321-0.473,0.493c-0.17,0.199-0.445,0.264-0.687,0.166c-0.162-0.064-0.348-0.048-0.496,0.049
		c-0.373,0.241-0.707,0.534-0.994,0.875c-0.192,0.227-0.448,0.391-0.733,0.474c-0.267,0.074-0.557,0.004-0.757-0.19
		c-0.121-0.117-0.21-0.264-0.259-0.426c-0.12-0.395-0.087-0.817,0.095-1.188c0.17-0.349,0.303-0.713,0.4-1.087
		C147.527,31.092,147.606,30.833,147.695,30.574z M135.841,28.169c0.073-0.168,0.124-0.344,0.154-0.526
		c0.05-0.31,0.073-0.623,0.066-0.939c-0.008-0.279,0.146-0.538,0.393-0.666c0.601-0.31,1.135-0.734,1.575-1.244
		c0.611-0.713,1.216-1.426,1.816-2.145c0.694-0.829,1.386-1.661,2.079-2.491c0.328-0.393,0.688-0.76,1.077-1.092
		c0.382-0.357,0.555-0.893,0.453-1.406c-0.063-0.324,0.008-0.66,0.196-0.932c0.146-0.21,0.354-0.372,0.595-0.457
		c0.243-0.085,0.506-0.085,0.747,0.002c0.421,0.152,0.795,0.415,1.083,0.759c0.202,0.239,0.427,0.456,0.672,0.648
		c0.174,0.138,0.277,0.344,0.282,0.563c0.004,0.194-0.093,0.376-0.259,0.478c-0.466,0.283-0.98,0.481-1.516,0.583
		c-0.431,0.081-0.788,0.389-0.933,0.802c-0.104,0.3-0.235,0.591-0.389,0.866c-0.251,0.449-0.638,0.806-1.105,1.019
		c-0.385,0.176-0.708,0.455-0.935,0.812c-0.587,0.921-1.286,1.765-2.081,2.514c-0.208,0.194-0.417,0.389-0.627,0.583
		c-0.164,0.15-0.277,0.349-0.326,0.563c-0.039,0.178,0.04,0.36,0.196,0.455c0.188,0.111,0.409,0.16,0.627,0.13
		c0.575-0.077,1.158-0.083,1.732-0.022c0.344,0.036,0.69,0,1.019-0.107c0.2-0.066,0.391-0.16,0.564-0.281
		c0.219-0.154,0.391-0.362,0.498-0.607c0.042-0.097,0.042-0.206,0-0.304c-0.119-0.271-0.103-0.583,0.042-0.842
		c0.12-0.213,0.243-0.421,0.369-0.63c0.095-0.155,0.287-0.219,0.456-0.151c0.306,0.123,0.613,0.246,0.919,0.366
		c0.382,0.149,0.747,0.338,1.087,0.564c0.156,0.102,0.324,0.183,0.5,0.239c0.16,0.051,0.267,0.202,0.261,0.368
		c-0.006,0.223-0.109,0.427-0.282,0.566c-0.293,0.233-0.563,0.494-0.806,0.782c-0.232,0.272-0.542,0.469-0.891,0.563
		c-0.251,0.068-0.443,0.269-0.5,0.522c-0.063,0.283-0.129,0.566-0.196,0.846c-0.036,0.156,0.035,0.315,0.174,0.393
		c0.241,0.132,0.544,0.045,0.676-0.198c0.008-0.012,0.014-0.026,0.021-0.041c0.093-0.218,0.227-0.416,0.391-0.587
		c0.182-0.186,0.465-0.23,0.696-0.109c0.144,0.077,0.235,0.228,0.239,0.394c0.006,0.352-0.164,0.688-0.458,0.891
		c-0.366,0.253-0.672,0.587-0.891,0.976c-0.164,0.291-0.315,0.589-0.456,0.891c-0.291,0.623-0.4,1.315-0.319,2
		c0.073,0.625,0.182,1.247,0.328,1.858c0.103,0.44,0.221,0.878,0.35,1.312c0.124,0.415,0.116,0.858-0.022,1.267
		c-0.095,0.281-0.36,0.468-0.656,0.462c-0.346-0.01-0.688-0.085-1.006-0.219c-0.332-0.142-0.591-0.409-0.723-0.745
		c-0.146-0.37-0.233-0.761-0.263-1.157c-0.036-0.5-0.138-0.992-0.306-1.466c-0.059-0.166-0.186-0.304-0.35-0.373
		c-0.186-0.076-0.395-0.093-0.591-0.042c-0.297,0.077-0.566,0.245-0.765,0.479c-0.17,0.203-0.376,0.364-0.611,0.482
		c-0.223,0.109-0.411,0.275-0.548,0.481c-0.178,0.268-0.354,0.536-0.524,0.81c-0.212,0.336-0.625,0.49-1.006,0.37
		c-0.251-0.078-0.468-0.24-0.613-0.459c-0.194-0.292-0.227-0.662-0.087-0.984c0.17-0.393,0.217-0.825,0.132-1.246
		c-0.105-0.519-0.059-1.057,0.131-1.551c0.113-0.298,0.369-0.519,0.678-0.591c0.306-0.073,0.573-0.26,0.743-0.524
		c0.216-0.339,0.465-0.652,0.745-0.941c0.093-0.098,0.187-0.19,0.284-0.283c0.006-0.005,0.01-0.011,0.016-0.015
		c0.091-0.07,0.221-0.055,0.29,0.036c0.125,0.16,0.174,0.369,0.131,0.569c-0.069,0.33-0.077,0.672-0.022,1.004
		c0.047,0.279,0.144,0.545,0.286,0.789c0.148,0.251,0.474,0.336,0.727,0.188c0.039-0.022,0.073-0.051,0.105-0.079
		c0.223-0.223,0.435-0.457,0.633-0.7c0.192-0.238,0.334-0.514,0.415-0.81c0.166-0.607,0.188-1.243,0.067-1.858
		c-0.03-0.153-0.061-0.306-0.087-0.459c-0.033-0.168-0.148-0.31-0.308-0.371c-0.201-0.081-0.393-0.182-0.569-0.308
		c-0.12-0.085-0.267-0.123-0.415-0.109c-0.939,0.096-1.885,0.096-2.822,0c-0.269-0.026-0.541-0.026-0.81,0
		c-0.17,0.019-0.31,0.142-0.351,0.308c-0.063,0.26-0.229,0.48-0.459,0.611c-0.245,0.138-0.555,0.073-0.723-0.153
		C135.75,28.837,135.709,28.48,135.841,28.169z M68.709,50.889c0.024-0.085,0.115-0.138,0.2-0.113
		c0.551,0.154,0.966,0.604,1.073,1.162c0.036,0.194,0.105,0.381,0.202,0.551c0.332,0.583,0.692,1.151,1.079,1.7
		c0.459,0.652,0.875,1.33,1.247,2.032c0.229,0.434,0.506,0.838,0.83,1.205c0.196,0.223,0.376,0.459,0.539,0.706
		c0.083,0.121,0.097,0.277,0.042,0.413c-0.089,0.223-0.059,0.474,0.083,0.664c0.302,0.413,0.553,0.858,0.747,1.328
		c0.279,0.676,0.613,1.327,0.996,1.951c0.356,0.574,0.703,1.155,1.039,1.74c0.095,0.168,0.192,0.332,0.292,0.498
		c0.051,0.089,0.148,0.138,0.249,0.126c0.087-0.008,0.164-0.069,0.196-0.15c0.059-0.142,0.063-0.297,0.014-0.44
		c-0.198-0.583-0.336-1.183-0.417-1.79c-0.117-0.891-0.437-1.74-0.933-2.487c-0.714-1.075-1.454-2.132-2.214-3.175
		c-0.506-0.691-1.008-1.389-1.504-2.087c-0.568-0.801-1.032-1.672-1.38-2.591c-0.219-0.579-0.36-1.188-0.417-1.806
		c-0.103-1.103-0.048-2.214,0.166-3.3c0.198-1,0.378-2.002,0.544-3.008c0.093-0.574,0.292-1.125,0.585-1.627
		c0.47-0.81,0.988-1.594,1.547-2.345c0.467-0.629,0.955-1.242,1.463-1.838c0.589-0.694,1.263-1.312,2.006-1.838
		c0.559-0.396,1.271-0.506,1.921-0.291c0.485,0.157,0.998,0.214,1.504,0.166c0.33-0.033,0.654,0.093,0.878,0.334
		c0.532,0.572,1.119,1.091,1.755,1.544c0.551,0.396,1.008,0.911,1.336,1.504c0.731,1.32,1.569,2.577,2.508,3.76
		c0.498,0.627,0.967,1.277,1.409,1.947c0.312,0.478,0.583,0.979,0.808,1.502c0.405,0.938,0.952,1.81,1.618,2.587
		c1.324,1.538,2.532,3.174,3.615,4.895c0.245,0.389,0.542,0.741,0.882,1.049c0.158,0.144,0.263,0.336,0.296,0.546
		c0.063,0.411-0.028,0.83-0.253,1.179c-0.31,0.478-0.71,0.891-1.178,1.218c-0.399,0.279-0.822,0.522-1.261,0.729
		c-0.901,0.421-1.725,0.989-2.439,1.68c-0.644,0.624-1.443,1.059-2.313,1.264c-1.021,0.238-2.065,0.364-3.111,0.376
		c-1.032,0.012-2.061-0.085-3.071-0.293c-0.802-0.164-1.569-0.464-2.271-0.883c-0.389-0.233-0.755-0.5-1.093-0.8
		c-0.087-0.075-0.168-0.153-0.245-0.239c-0.081-0.089-0.204-0.123-0.32-0.089c-0.083,0.024-0.133,0.105-0.115,0.19
		c0.065,0.312,0.146,0.617,0.243,0.919c0.294,0.917,0.541,1.847,0.741,2.787c0.064,0.298,0.133,0.594,0.21,0.885
		c0.051,0.192,0.113,0.381,0.186,0.563c0.118,0.283,0.227,0.57,0.328,0.861c0.188,0.539,0.162,1.132-0.071,1.656
		c-0.095,0.213-0.34,0.315-0.559,0.23c-0.302-0.113-0.585-0.271-0.84-0.465c-0.658-0.5-1.198-1.138-1.587-1.867
		c-0.852-1.591-1.721-3.176-2.607-4.75c-0.955-1.699-1.862-3.426-2.716-5.177c-0.445-0.91-0.927-1.806-1.445-2.676
		c-0.146-0.243-0.293-0.485-0.447-0.727c-0.293-0.464-0.488-0.986-0.571-1.528C68.701,50.936,68.703,50.913,68.709,50.889z
		 M25.787,99.265c-0.122,0.097-0.233,0.202-0.334,0.319c-0.186,0.217-0.49,0.292-0.755,0.183c-0.371-0.152-0.676-0.43-0.86-0.781
		c-0.229-0.434-0.293-0.934-0.184-1.409c0.051-0.219,0.148-0.423,0.288-0.599c0.046-0.062,0.075-0.134,0.079-0.209
		c0-0.019,0.002-0.038,0.004-0.055c0.05-0.381,0.398-0.647,0.777-0.597c0.194,0.026,0.386,0.068,0.575,0.131
		c0.208,0.067,0.433-0.036,0.52-0.234c0.124-0.283,0.302-0.543,0.522-0.757c0.419-0.409,0.982-0.632,1.565-0.626
		c0.504,0.006,0.99,0.181,1.382,0.496c0.257,0.206,0.516,0.405,0.783,0.6c0.29,0.212,0.632,0.348,0.99,0.391
		c0.257,0.03,0.49-0.152,0.522-0.417c0.059-0.585,0.146-1.168,0.261-1.747c0.127-0.652,0.259-1.304,0.391-1.956
		c0.095-0.463,0.235-0.919,0.417-1.354c0.229-0.545,0.672-0.97,1.227-1.172c0.391-0.146,0.814-0.183,1.225-0.105
		c0.243,0.044,0.407,0.275,0.367,0.522c-0.067,0.391-0.002,0.793,0.182,1.146c0.117,0.225,0.212,0.461,0.285,0.704
		c0.081,0.261,0.107,0.534,0.079,0.806c-0.024,0.239,0.033,0.478,0.156,0.681c0.118,0.186,0.154,0.41,0.105,0.623
		c-0.103,0.457,0.002,0.936,0.288,1.304c0.105,0.138,0.176,0.3,0.208,0.47c0.055,0.304,0.099,0.607,0.129,0.913
		c0.03,0.277,0.182,0.528,0.417,0.678c0.273,0.174,0.482,0.43,0.601,0.729c0.067,0.172,0.261,0.255,0.433,0.188
		c0.073-0.03,0.134-0.083,0.172-0.153c0.093-0.177,0.154-0.371,0.18-0.569c0.042-0.334,0.034-0.672-0.026-1.006
		c-0.061-0.336-0.035-0.683,0.079-1.006c0.105-0.306,0.271-0.587,0.49-0.826c0.012-0.017,0.028-0.028,0.042-0.038
		c0.119-0.086,0.285-0.055,0.371,0.063c0.093,0.134,0.18,0.271,0.259,0.413c0.129,0.238,0.15,0.521,0.051,0.775
		c-0.081,0.212-0.026,0.451,0.14,0.606c0.097,0.092,0.184,0.196,0.255,0.311c0.113,0.188,0.196,0.393,0.239,0.608
		c0.081,0.392,0.055,0.8-0.073,1.179c-0.103,0.302-0.103,0.629,0,0.933c0.136,0.405,0.29,0.802,0.459,1.192
		c0.093,0.213,0.196,0.424,0.308,0.63c0.071,0.132,0.136,0.268,0.19,0.409c0.12,0.308,0.352,0.563,0.652,0.706
		c0.338,0.164,0.684,0.31,1.041,0.432c0.275,0.093,0.496,0.299,0.609,0.566c0.121,0.283,0.285,0.547,0.488,0.777
		c0.241,0.279,0.518,0.524,0.822,0.732c0.585,0.397,1.136,0.851,1.64,1.349c0.229,0.227,0.478,0.438,0.739,0.627
		c0.666,0.488,1.376,0.911,2.124,1.262c0.338,0.16,0.647,0.37,0.917,0.629c0.046,0.045,0.075,0.104,0.081,0.166
		c0.014,0.146-0.093,0.279-0.239,0.292c-0.239,0.024-0.481,0.024-0.72,0c-0.589-0.057-1.166-0.198-1.715-0.421
		c-0.518-0.211-1.061-0.353-1.615-0.421c-0.725-0.094-1.429-0.304-2.087-0.624c-0.589-0.283-1.188-0.549-1.795-0.791
		c-0.33-0.132-0.646-0.298-0.941-0.492c-0.192-0.126-0.443-0.121-0.632,0.012c-0.131,0.094-0.223,0.235-0.257,0.394
		c-0.035,0.157-0.018,0.323,0.041,0.474c0.091,0.227,0.071,0.481-0.055,0.691c-0.138,0.233-0.334,0.426-0.569,0.555
		c-0.34,0.19-0.725,0.284-1.113,0.271c-0.298-0.008-0.587-0.097-0.84-0.255c-0.131-0.085-0.218-0.225-0.23-0.381
		c-0.014-0.178,0.083-0.344,0.245-0.421c0.205-0.093,0.379-0.243,0.5-0.433c0.199-0.3,0.367-0.618,0.502-0.948
		c0.093-0.223,0.151-0.453,0.178-0.691c0.014-0.138-0.059-0.271-0.184-0.332c-0.65-0.32-1.332-0.573-2.034-0.753
		c-0.464-0.122-0.923-0.26-1.375-0.419c-0.288-0.1-0.601,0.042-0.715,0.323c-0.144,0.356-0.253,0.727-0.324,1.104
		c-0.042,0.23,0.032,0.47,0.203,0.634c0.133,0.127,0.235,0.285,0.295,0.459c0.071,0.192,0.099,0.401,0.083,0.604
		s-0.004,0.404,0.037,0.604c0.057,0.271,0.202,0.518,0.415,0.696c0.332,0.279,0.729,0.467,1.152,0.548
		c0.389,0.075,0.723,0.322,0.911,0.67c0.147,0.277,0.241,0.583,0.267,0.896c0.044,0.498-0.063,0.998-0.308,1.433
		c-0.217,0.385-0.595,0.652-1.03,0.723c-0.903,0.15-1.826,0.128-2.719-0.066c-0.241-0.053-0.479-0.098-0.723-0.134
		c-0.306-0.049-0.615-0.073-0.925-0.081c-0.62-0.012-1.233-0.121-1.82-0.319c-0.334-0.114-0.644-0.292-0.911-0.522
		c-0.421-0.364-0.759-0.81-0.994-1.312c-0.047-0.102-0.014-0.219,0.079-0.279c0.17-0.109,0.369-0.171,0.573-0.175
		c0.266-0.002,0.529,0.053,0.771,0.162c0.334,0.146,0.688,0.241,1.051,0.279c0.382,0.037,0.763,0.081,1.144,0.132
		c0.371,0.049,0.743-0.051,1.039-0.279c0.218-0.168,0.429-0.349,0.627-0.538c0.259-0.245,0.304-0.643,0.107-0.938
		c-0.241-0.362-0.443-0.749-0.605-1.15c-0.354-0.876-0.696-1.755-1.032-2.635c-0.296-0.781-0.506-1.596-0.624-2.422
		c-0.055-0.396-0.245-0.761-0.533-1.036c-0.103-0.097-0.208-0.192-0.315-0.283c-0.519-0.429-1.101-0.773-1.729-1.017
		c-0.688-0.267-1.354-0.591-1.988-0.969c-0.342-0.205-0.741-0.286-1.135-0.237C25.969,99.131,25.876,99.195,25.787,99.265z
		 M49.189,233.675l0.751-0.688c0.768,0.842,1.498,0.947,2.19,0.312l7.943-7.263c0.654-0.6,0.836-1.219,0.569-1.866
		c-0.678-0.692-1.604-0.636-2.8,0.259l-10.113,7.566l-0.561-0.389l3.848-12.942l-5.494,4.104c-1.423,1.069-1.747,2.117-0.976,3.146
		l-0.815,0.611l-2.83-3.781l0.816-0.611c0.638,0.854,1.668,0.745,3.091-0.319l8.425-6.304c0.427-0.319,0.27-0.972-0.474-1.964
		l0.017-0.012c-0.535-0.377-1.192-0.328-1.984,0.17l-8.959,5.647c-0.834,0.526-0.933,1.296-0.299,2.3l-0.86,0.543l-3.551-5.632
		l0.86-0.543c0.627,0.992,1.358,1.228,2.19,0.701l8.961-5.648c0.952-0.599,1.188-1.348,0.794-2.227L49.8,208.91
		c-0.524-1.026-1.354-1.247-2.492-0.668l-9.433,4.817c-0.878,0.449-1.057,1.187-0.532,2.211l-0.907,0.461l-3.046-5.963l0.907-0.462
		c0.563,1.102,1.283,1.433,2.162,0.983l4.36-2.229c0.014-0.147-0.002-0.336-0.053-0.557c-0.05-0.225-0.144-0.472-0.283-0.741
		l-1.034-2.025c-0.213-0.417-0.486-0.739-0.818-0.964l-4.364,2.225c-0.875,0.447-1.055,1.18-0.539,2.192l-0.907,0.464l-3.063-5.996
		l0.907-0.466c0.581,1.14,1.31,1.483,2.188,1.036l9.433-4.819c1.05-0.536,1.334-1.322,0.919-2.33
		c-1.032,0.632-2.336,1.253-3.943,1.866l-0.474-1.24c1.429-0.885,2.376-1.709,2.846-2.474c0.47-0.768,0.541-1.581,0.21-2.445
		c-0.229-0.602-0.585-1.028-1.071-1.275c-0.484-0.251-1.042-0.379-1.678-0.387c-0.636-0.009-1.328,0.081-2.079,0.273
		c-0.749,0.19-1.496,0.427-2.237,0.708c-1.014,0.385-1.941,0.792-2.784,1.221c-0.842,0.427-1.54,0.889-2.097,1.385
		c-0.554,0.496-0.941,1.028-1.158,1.599c-0.216,0.569-0.198,1.185,0.053,1.847c0.328,0.862,0.903,1.466,1.723,1.8
		c0.82,0.338,1.998,0.459,3.534,0.362l-0.071,0.9c-0.79,0.109-1.534,0.125-2.239,0.049c-0.705-0.077-1.346-0.243-1.925-0.494
		c-0.583-0.255-1.081-0.587-1.498-1.006c-0.417-0.417-0.737-0.913-0.958-1.492c-0.409-1.077-0.563-2.061-0.459-2.951
		c0.101-0.891,0.403-1.696,0.905-2.423s1.176-1.368,2.018-1.925s1.808-1.043,2.895-1.456c1.162-0.443,2.271-0.757,3.326-0.941
		c1.052-0.184,2.014-0.202,2.884-0.051c0.869,0.148,1.627,0.474,2.279,0.98c0.648,0.504,1.152,1.223,1.506,2.155
		c0.103,0.271,0.19,0.569,0.263,0.895c0.071,0.326,0.115,0.656,0.131,0.994c0.016,0.342-0.004,0.674-0.061,0.998
		c-0.057,0.326-0.164,0.628-0.318,0.9c0.7,0.073,1.253,0.343,1.656,0.813c-0.077,0.063-0.18,0.125-0.263,0.188l3.01,5.893
		l-0.952,0.486c-0.516-1.014-1.346-1.23-2.488-0.646l-3.534,1.804c0.014,0.206,0.05,0.402,0.107,0.585
		c0.057,0.184,0.146,0.389,0.259,0.611l1.037,2.028c0.299,0.585,0.555,0.945,0.769,1.076l3.555-1.815
		c1.14-0.583,1.429-1.423,0.864-2.528l0.952-0.485l2.833,5.55l0.138-0.087l3.542,5.617l-0.085,0.057l1.629,2.179l-3.544,11.534
		l4.99-3.733c1.308-0.976,1.579-1.979,0.814-3l0.852-0.64l2.104,2.814l7.332,8.016l-3.403,3.315l-0.872-0.769
		c0.579-0.685,0.974-1.268,1.18-1.745c0.207-0.486,0.288-0.911,0.243-1.279c-0.042-0.373-0.182-0.717-0.417-1.032
		c-0.235-0.316-0.514-0.656-0.838-1.009c-0.282-0.308-0.557-0.493-0.824-0.559c-0.265-0.064-0.506,0-0.718,0.199l-3.136,2.866
		c-0.286,0.259-0.33,0.497-0.131,0.712c0.202,0.223,0.409,0.413,0.615,0.567c0.207,0.153,0.437,0.242,0.696,0.275
		c0.257,0.028,0.553-0.024,0.889-0.158c0.336-0.138,0.73-0.385,1.186-0.753l0.743,0.813l-4.775,4.368l-0.743-0.81
		c0.38-0.4,0.664-0.745,0.856-1.04c0.19-0.296,0.298-0.563,0.322-0.798c0.024-0.235-0.02-0.466-0.133-0.688
		c-0.116-0.219-0.281-0.461-0.5-0.725c-0.326-0.283-0.632-0.295-0.919-0.036l-3.344,3.061c-0.573,0.526-0.539,1.134,0.101,1.834
		c0.519,0.57,0.992,0.972,1.417,1.21c0.425,0.235,0.853,0.356,1.281,0.356c0.429,0.004,0.881-0.093,1.358-0.291
		c0.478-0.194,1.03-0.454,1.66-0.77l0.587,0.927l-4.063,2.996L49.189,233.675z M62.171,246.945c-0.555-0.19-1.069-0.506-1.542-0.943
		c-0.344-0.315-0.625-0.68-0.849-1.081c-0.22-0.4-0.328-0.85-0.315-1.348c-0.34-0.004-0.67-0.032-0.99-0.089
		c-0.322-0.058-0.628-0.138-0.917-0.251c0.271-0.519,0.579-1.013,0.923-1.479c0.342-0.461,0.721-0.919,1.138-1.372
		c0.285-0.308,0.571-0.604,0.86-0.887c0.285-0.283,0.591-0.566,0.915-0.842l0.907,0.838c-0.362,0.393-0.692,0.83-0.986,1.304
		c-0.293,0.478-0.508,0.963-0.644,1.466c-0.136,0.502-0.16,0.991-0.075,1.469c0.087,0.474,0.33,0.896,0.729,1.264
		c0.362,0.336,0.714,0.566,1.052,0.692c0.34,0.125,0.668,0.174,0.986,0.138c0.318-0.037,0.62-0.142,0.903-0.308
		c0.284-0.166,0.547-0.381,0.788-0.645c0.382-0.412,0.619-0.838,0.708-1.271c0.091-0.434,0.022-0.911-0.205-1.43
		c-0.336-0.772-0.629-1.498-0.878-2.182c-0.249-0.681-0.391-1.349-0.427-2.008c-0.036-0.664,0.061-1.316,0.296-1.956
		c0.23-0.644,0.66-1.304,1.283-1.979c0.472-0.51,0.974-0.902,1.506-1.17c0.53-0.268,1.059-0.425,1.581-0.47
		c0.524-0.045,1.028,0.021,1.514,0.194s0.923,0.438,1.312,0.802c0.344,0.315,0.602,0.7,0.77,1.153
		c0.168,0.45,0.182,0.968,0.046,1.543c0.32-0.142,0.65-0.198,0.988-0.174s0.638,0.093,0.899,0.202
		c-0.387,0.696-0.897,1.417-1.528,2.166c-0.63,0.749-1.241,1.445-1.832,2.085l-0.961-0.887c0.364-0.543,0.672-1.064,0.919-1.559
		c0.251-0.494,0.427-0.96,0.526-1.393c0.101-0.434,0.117-0.826,0.053-1.175c-0.067-0.344-0.231-0.639-0.492-0.878
		c-0.536-0.502-1.085-0.745-1.64-0.741s-1.042,0.235-1.459,0.685c-0.295,0.319-0.488,0.632-0.571,0.927
		c-0.085,0.296-0.103,0.615-0.057,0.956c0.046,0.34,0.15,0.708,0.306,1.104c0.158,0.401,0.33,0.854,0.518,1.356
		c0.215,0.571,0.395,1.113,0.542,1.624c0.148,0.514,0.208,1.02,0.182,1.521c-0.026,0.507-0.162,1.021-0.405,1.547
		c-0.243,0.522-0.649,1.093-1.221,1.713c-0.55,0.595-1.115,1.052-1.696,1.376c-0.581,0.32-1.164,0.515-1.751,0.579
		C63.294,247.2,62.725,247.136,62.171,246.945z M79.36,246.492c0.456-0.77,0.743-1.413,0.867-1.919
		c0.124-0.511,0.131-0.943,0.026-1.304c-0.105-0.356-0.302-0.672-0.585-0.947c-0.286-0.268-0.618-0.555-0.996-0.847
		c-0.33-0.259-0.632-0.396-0.907-0.417c-0.271-0.016-0.498,0.089-0.676,0.316l-2.607,3.352c-0.237,0.308-0.241,0.551-0.01,0.729
		c0.239,0.186,0.474,0.336,0.704,0.453c0.229,0.117,0.472,0.17,0.731,0.153c0.259-0.012,0.542-0.113,0.85-0.304
		c0.308-0.189,0.656-0.502,1.044-0.938l0.869,0.676l-3.974,5.109l-0.869-0.677c0.308-0.457,0.53-0.85,0.668-1.17
		c0.14-0.323,0.201-0.603,0.185-0.838c-0.014-0.238-0.097-0.457-0.247-0.655c-0.152-0.194-0.356-0.405-0.615-0.632
		c-0.369-0.223-0.672-0.183-0.911,0.125l-2.783,3.575c-0.474,0.611-0.338,1.211,0.411,1.794c0.607,0.474,1.142,0.789,1.602,0.951
		c0.457,0.162,0.898,0.206,1.322,0.138c0.423-0.069,0.854-0.243,1.292-0.519c0.437-0.271,0.939-0.619,1.504-1.036l0.735,0.817
		l-3.498,3.636l-8.702-6.77l0.625-0.801c0.899,0.696,1.636,0.676,2.21-0.062l6.607-8.497c0.743-0.96,0.63-1.814-0.338-2.567
		l0.654-0.838l8.597,6.681l-2.796,3.846L79.36,246.492z M92.601,267.479l-5.625-3.081l0.48-0.87c0.17,0.053,0.348,0.117,0.536,0.182
		c0.188,0.065,0.36,0.117,0.519,0.158c0.158,0.04,0.295,0.061,0.411,0.061c0.116,0,0.19-0.028,0.221-0.085
		c0.039-0.073,0.069-0.162,0.093-0.267c0.022-0.109,0.048-0.228,0.077-0.361L90,260.221c0.042-0.179-0.01-0.353-0.152-0.511
		c-0.142-0.162-0.308-0.295-0.496-0.396l-2.429-1.328c-0.356-0.198-0.65-0.174-0.883,0.069l-1.721,1.874
		c-0.061,0.061-0.119,0.13-0.176,0.207c-0.059,0.081-0.116,0.166-0.17,0.267c-0.301,0.555,0.019,1.089,0.962,1.604l-0.537,0.979
		l-3.876-2.125l0.537-0.976c0.649,0.283,1.375,0.052,2.172-0.688l10.522-9.854l1.397,1.126l-2.95,14.578
		c-0.041,0.183-0.038,0.349,0.008,0.502c0.044,0.158,0.115,0.296,0.212,0.426c0.097,0.121,0.203,0.242,0.316,0.352
		c0.113,0.105,0.227,0.203,0.34,0.283L92.601,267.479z M99.162,270.24c-0.589,0.009-1.168-0.117-1.737-0.364
		c-1.053-0.461-1.862-1.036-2.427-1.732c-0.565-0.701-0.929-1.482-1.097-2.349c-0.166-0.866-0.152-1.793,0.041-2.789
		c0.192-0.992,0.522-2.021,0.99-3.085c0.498-1.142,1.05-2.149,1.658-3.028c0.605-0.883,1.267-1.583,1.984-2.097
		c0.714-0.515,1.481-0.83,2.295-0.939c0.816-0.109,1.68,0.032,2.595,0.433c0.265,0.118,0.541,0.264,0.822,0.441
		c0.281,0.174,0.548,0.377,0.804,0.6c0.253,0.227,0.476,0.478,0.668,0.745c0.192,0.271,0.334,0.555,0.421,0.857
		c0.542-0.449,1.124-0.651,1.739-0.611c-0.133,1.441-0.692,3.284-1.676,5.535l-1.217-0.535c0.371-1.636,0.447-2.887,0.229-3.761
		c-0.22-0.87-0.753-1.494-1.597-1.862c-0.591-0.259-1.146-0.304-1.662-0.13c-0.516,0.17-1,0.478-1.451,0.928
		c-0.454,0.445-0.873,1.004-1.261,1.676c-0.391,0.664-0.745,1.364-1.063,2.089c-0.435,0.996-0.795,1.943-1.079,2.842
		c-0.284,0.903-0.441,1.725-0.478,2.47c-0.036,0.745,0.073,1.393,0.326,1.943c0.257,0.555,0.708,0.972,1.356,1.259
		c0.846,0.369,1.676,0.377,2.492,0.029c0.815-0.349,1.727-1.102,2.734-2.268l0.591,0.684c-0.474,0.636-0.984,1.183-1.532,1.628
		c-0.549,0.445-1.116,0.79-1.703,1.028C100.34,270.11,99.751,270.232,99.162,270.24z M108.902,273.808l0.31-0.943
		c0.178,0.023,0.365,0.053,0.561,0.08c0.196,0.033,0.376,0.053,0.541,0.065c0.16,0.008,0.299,0.004,0.413-0.017
		c0.116-0.024,0.18-0.068,0.203-0.129c0.024-0.073,0.039-0.17,0.041-0.279c0.004-0.109,0.006-0.231,0.01-0.365l0.129-3.072
		c0.008-0.183-0.073-0.34-0.243-0.474c-0.17-0.134-0.356-0.231-0.561-0.296l-2.631-0.866c-0.385-0.126-0.67-0.049-0.854,0.23
		l-1.348,2.158c-0.048,0.068-0.095,0.149-0.136,0.239c-0.044,0.085-0.083,0.182-0.117,0.291c-0.196,0.6,0.217,1.064,1.237,1.4
		l-0.348,1.057l-4.198-1.376l0.346-1.061c0.694,0.162,1.364-0.198,2.01-1.073l8.542-11.611l1.579,0.851l-0.229,14.874
		c-0.008,0.183,0.024,0.349,0.097,0.49c0.073,0.146,0.168,0.271,0.286,0.376c0.117,0.105,0.245,0.203,0.375,0.288
		c0.131,0.085,0.261,0.157,0.389,0.219l-0.31,0.943L108.902,273.808z M127.082,276.427c-0.644,0.53-1.407,0.862-2.289,0.996
		c-0.883,0.133-1.917,0.072-3.104-0.183l-6.455-1.389l0.212-0.992c0.36,0.073,0.658,0.114,0.897,0.114
		c0.239,0.004,0.435-0.053,0.591-0.171c0.154-0.113,0.281-0.295,0.378-0.546c0.102-0.251,0.196-0.596,0.288-1.021l2.071-9.644
		c0.115-0.538,0.17-0.936,0.16-1.194c-0.01-0.259-0.073-0.449-0.188-0.571c-0.115-0.125-0.283-0.227-0.506-0.308
		c-0.221-0.08-0.49-0.206-0.802-0.372l0.223-1.045c0.299,0.118,0.583,0.207,0.852,0.284c0.267,0.076,0.544,0.142,0.828,0.202
		c0.384,0.085,0.735,0.149,1.055,0.202c0.318,0.053,0.666,0.105,1.042,0.162c0.375,0.057,0.81,0.13,1.301,0.219
		c0.49,0.089,1.107,0.21,1.85,0.372c0.964,0.207,1.79,0.535,2.474,0.988c0.687,0.453,1.217,1.053,1.593,1.793
		c0.378,0.741,0.591,1.648,0.64,2.717c0.049,1.069-0.079,2.315-0.385,3.732c-0.292,1.36-0.658,2.511-1.099,3.445
		C128.271,275.159,127.728,275.896,127.082,276.427z M168.403,264.508l-2.528,7.923l0.564,4.74c0.067,0.563,0.704,0.77,1.911,0.624
		l0.119,1.012l-6.838,0.818l-0.119-1.013c1.255-0.149,1.846-0.534,1.771-1.161l-0.545-4.551l-3.846-6.13
		c-0.539-0.854-1.079-1.364-1.617-1.563c-0.041,0.008-0.111,0.004-0.15,0.017c-0.227,0.077-0.406,0.174-0.539,0.295
		c-0.133,0.122-0.216,0.255-0.254,0.401c-0.037,0.146-0.055,0.299-0.055,0.461l0.279,10.955c0.031,1.179,0.597,1.766,1.695,1.762
		l0.007,1.016l-6.015,0.029l-0.004-1.017c1.1-0.008,1.648-0.543,1.645-1.607l-0.201-10.134l-3.696,12.77l-1.706,0.008l-4.12-12.655
		l-0.03,9.716c0.006,1.296,0.627,1.936,1.866,1.932l0.006,1.016l-4.725,0.024l-0.004-1.016c0.568-0.004,1.004-0.179,1.308-0.526
		c0.301-0.353,0.458-0.891,0.465-1.615l0.101-10.595c0-0.194-0.01-0.369-0.03-0.522c-0.02-0.154-0.089-0.283-0.21-0.385
		c-0.122-0.105-0.308-0.19-0.561-0.251c-0.172-0.045-0.407-0.069-0.672-0.081l-0.271,3.494l-1.162-0.004
		c-0.016-0.896-0.105-1.596-0.267-2.094c-0.162-0.494-0.382-0.866-0.658-1.117c-0.277-0.251-0.609-0.417-0.996-0.502
		c-0.385-0.081-0.816-0.149-1.295-0.202c-0.413-0.045-0.743-0.005-0.986,0.125c-0.243,0.126-0.38,0.332-0.411,0.62l-0.465,4.222
		c-0.041,0.385,0.083,0.592,0.37,0.624c0.304,0.032,0.581,0.036,0.838,0.021c0.257-0.024,0.492-0.109,0.707-0.256
		c0.212-0.146,0.4-0.38,0.563-0.704c0.164-0.324,0.295-0.773,0.397-1.344l1.095,0.121l-0.708,6.429l-1.093-0.117
		c0.022-0.551,0.008-1-0.044-1.348c-0.051-0.349-0.144-0.616-0.282-0.814c-0.14-0.19-0.324-0.332-0.555-0.425
		c-0.232-0.089-0.516-0.162-0.854-0.215c-0.433,0-0.67,0.194-0.712,0.579l-0.496,4.506c-0.085,0.773,0.344,1.211,1.288,1.316
		c0.767,0.081,1.389,0.072,1.864-0.028c0.476-0.102,0.876-0.296,1.198-0.575c0.324-0.283,0.601-0.656,0.83-1.117
		c0.229-0.466,0.474-1.021,0.737-1.677l1.053,0.313l-1.075,4.931l-10.955-1.206l0.109-1.013c1.131,0.126,1.749-0.275,1.852-1.21
		l1.176-10.696c0.131-1.206-0.413-1.875-1.632-2.008l0.118-1.062l10.821,1.187l-0.012,0.166l4.603-0.024l3.716,11.717l3.474-11.749
		l2.953-0.012l6.268-0.753l0.127,1.061c-0.891,0.105-1.313,0.376-1.26,0.81c0.019,0.162,0.152,0.429,0.401,0.806l3.093,4.927
		l1.676-5.474c0.035-0.247,0.027-0.57-0.02-0.972c-0.045-0.372-0.557-0.494-1.537-0.38l-0.125-1.057l4.539-0.543l0.127,1.057
		C169.12,263.617,168.654,263.945,168.403,264.508z M190.508,271.686c-0.37,0.858-0.895,1.583-1.571,2.174
		c-0.676,0.587-1.475,1.021-2.396,1.292c-0.872,0.259-1.736,0.352-2.589,0.275c-0.854-0.073-1.659-0.349-2.421-0.826
		c-0.762-0.47-1.453-1.162-2.081-2.072c-0.626-0.911-1.146-2.062-1.559-3.454c-0.419-1.413-0.622-2.672-0.607-3.781
		c0.015-1.105,0.204-2.072,0.573-2.898c0.368-0.826,0.893-1.51,1.57-2.049c0.679-0.534,1.466-0.935,2.363-1.202
		c0.884-0.268,1.767-0.344,2.646-0.243c0.883,0.102,1.711,0.393,2.488,0.879c0.777,0.485,1.482,1.17,2.113,2.053
		c0.632,0.882,1.142,1.976,1.526,3.274c0.391,1.32,0.573,2.531,0.544,3.636C191.081,269.844,190.88,270.827,190.508,271.686z
		 M194.255,272.313l-0.387-0.939c1.006-0.413,1.285-1.162,0.838-2.255l-3.908-9.53c-0.484-1.183-1.271-1.551-2.361-1.105
		l-0.404-0.983l9.864-4.049l2.064,4.187l-1.103,0.607c-0.407-0.688-0.794-1.211-1.164-1.567c-0.373-0.352-0.743-0.574-1.115-0.668
		c-0.375-0.089-0.771-0.085-1.193,0.017c-0.422,0.105-0.887,0.259-1.389,0.466c-0.633,0.259-0.844,0.644-0.635,1.149l1.574,3.838
		c0.188,0.462,0.577,0.575,1.162,0.332c0.291-0.117,0.517-0.251,0.67-0.393c0.152-0.138,0.252-0.32,0.292-0.539
		c0.04-0.218,0.028-0.481-0.032-0.797c-0.061-0.316-0.148-0.713-0.262-1.187l0.947-0.393l2.42,5.898l-0.967,0.396l-0.229-0.559
		c-0.074-0.182-0.174-0.372-0.297-0.574c-0.124-0.203-0.29-0.373-0.494-0.507c-0.205-0.133-0.459-0.206-0.768-0.218
		c-0.305-0.017-0.676,0.064-1.109,0.242c-0.223,0.094-0.35,0.198-0.383,0.312c-0.033,0.122-0.016,0.264,0.051,0.43l1.648,4.012
		c0.447,1.094,1.265,1.393,2.459,0.903l0.387,0.943L194.255,272.313z M218.792,259.022c-0.101,0.578-0.321,1.109-0.661,1.587
		c-0.341,0.478-0.788,0.882-1.341,1.214c-0.4,0.239-0.827,0.409-1.275,0.511c-0.449,0.097-0.91,0.072-1.382-0.077
		c-0.101,0.324-0.223,0.632-0.364,0.927c-0.142,0.292-0.308,0.563-0.498,0.806c-0.423-0.404-0.808-0.838-1.158-1.295
		c-0.348-0.462-0.68-0.956-0.998-1.482c-0.215-0.36-0.418-0.716-0.611-1.072c-0.191-0.356-0.374-0.725-0.546-1.113l1.057-0.636
		c0.274,0.461,0.599,0.895,0.974,1.312c0.377,0.417,0.785,0.757,1.229,1.028s0.904,0.434,1.385,0.485
		c0.479,0.049,0.953-0.064,1.419-0.348c0.423-0.251,0.745-0.522,0.96-0.813c0.218-0.288,0.354-0.592,0.406-0.907
		c0.055-0.315,0.041-0.632-0.041-0.951c-0.08-0.32-0.212-0.632-0.395-0.936c-0.291-0.485-0.631-0.834-1.021-1.04
		c-0.391-0.207-0.867-0.275-1.43-0.202c-0.834,0.104-1.615,0.182-2.338,0.227c-0.723,0.048-1.406,0-2.051-0.15
		c-0.644-0.153-1.24-0.429-1.793-0.834c-0.553-0.404-1.064-1-1.541-1.793c-0.355-0.592-0.589-1.183-0.695-1.77
		c-0.109-0.587-0.111-1.138-0.009-1.651c0.105-0.511,0.31-0.976,0.611-1.393c0.304-0.417,0.683-0.766,1.138-1.041
		c0.4-0.239,0.842-0.376,1.324-0.409c0.479-0.036,0.977,0.094,1.494,0.389c-0.049-0.348-0.011-0.684,0.108-1
		c0.12-0.315,0.268-0.583,0.445-0.806c0.563,0.571,1.114,1.26,1.654,2.077c0.542,0.813,1.036,1.6,1.485,2.344l-1.121,0.673
		c-0.422-0.502-0.832-0.939-1.236-1.32c-0.405-0.38-0.803-0.676-1.193-0.895c-0.389-0.223-0.759-0.344-1.111-0.381
		c-0.352-0.032-0.678,0.041-0.983,0.223c-0.628,0.377-1.019,0.834-1.17,1.369c-0.149,0.534-0.067,1.061,0.249,1.591
		c0.225,0.376,0.468,0.644,0.729,0.81c0.262,0.162,0.561,0.271,0.9,0.319c0.341,0.053,0.723,0.057,1.15,0.021
		c0.428-0.04,0.908-0.077,1.445-0.117c0.609-0.045,1.178-0.064,1.711-0.064c0.531,0,1.033,0.085,1.512,0.255
		c0.476,0.166,0.932,0.441,1.366,0.821c0.435,0.381,0.868,0.932,1.304,1.652c0.417,0.696,0.696,1.368,0.844,2.016
		C218.872,257.828,218.896,258.443,218.792,259.022z M228.458,252.213c-0.093,0.623-0.287,1.194-0.578,1.704
		c-0.294,0.514-0.691,0.951-1.193,1.315c-0.933,0.677-1.842,1.077-2.729,1.215c-0.887,0.134-1.746,0.049-2.578-0.247
		c-0.83-0.296-1.623-0.773-2.381-1.445c-0.759-0.668-1.478-1.474-2.162-2.417c-0.73-1.004-1.322-1.996-1.775-2.959
		c-0.451-0.972-0.719-1.896-0.799-2.773c-0.084-0.879,0.034-1.696,0.352-2.458c0.316-0.761,0.879-1.429,1.688-2.02
		c0.235-0.166,0.502-0.332,0.796-0.482c0.295-0.153,0.604-0.283,0.927-0.389c0.321-0.104,0.649-0.17,0.978-0.202
		c0.33-0.028,0.65-0.004,0.955,0.073c-0.113-0.696,0.002-1.3,0.351-1.81c1.175,0.842,2.483,2.263,3.923,4.251l-1.074,0.777
		c-1.223-1.15-2.266-1.851-3.13-2.102c-0.86-0.251-1.666-0.109-2.415,0.434c-0.52,0.376-0.84,0.834-0.953,1.364
		c-0.115,0.534-0.094,1.109,0.064,1.725s0.426,1.259,0.806,1.935c0.379,0.677,0.802,1.332,1.268,1.976
		c0.636,0.879,1.271,1.668,1.902,2.369c0.634,0.7,1.261,1.255,1.885,1.659c0.626,0.409,1.239,0.645,1.847,0.705
		c0.604,0.061,1.193-0.118,1.767-0.53c0.749-0.543,1.179-1.256,1.292-2.134c0.111-0.879-0.08-2.049-0.575-3.506l0.891-0.166
		c0.31,0.732,0.521,1.449,0.63,2.149C228.544,250.921,228.552,251.585,228.458,252.213z M231.271,251.294l-0.66-0.777
		c0.896-0.758,1.025-1.515,0.389-2.268l-6.858-8.072c-0.827-0.972-1.708-1.062-2.644-0.271l-0.69-0.81l5.061-4.3l0.69,0.813
		c-0.858,0.729-0.873,1.579-0.047,2.555l6.858,8.068c0.64,0.754,1.411,0.745,2.317-0.023l0.658,0.772L231.271,251.294z
		 M253.29,229.145l-13.49-0.628l5.307,4.344c1.376,1.13,2.471,1.19,3.289,0.194l0.787,0.644l-2.994,3.656l-0.787-0.644
		c0.672-0.826,0.322-1.798-1.053-2.927l-8.137-6.664c-0.391-0.32-0.954-0.037-1.679,0.802l2.63,2.478l-0.737,0.902
		c-0.706-0.551-1.304-0.919-1.794-1.105c-0.487-0.186-0.916-0.25-1.285-0.189c-0.37,0.061-0.708,0.214-1.014,0.461
		s-0.63,0.543-0.972,0.879c-0.296,0.295-0.47,0.579-0.522,0.846c-0.053,0.271,0.021,0.506,0.225,0.713l2.998,3.012
		c0.271,0.271,0.51,0.308,0.717,0.102c0.217-0.215,0.396-0.425,0.543-0.64c0.143-0.211,0.225-0.445,0.244-0.704
		c0.021-0.26-0.045-0.555-0.194-0.883c-0.151-0.332-0.417-0.717-0.8-1.154l0.779-0.777l4.564,4.592l-0.781,0.772
		c-0.412-0.364-0.771-0.631-1.074-0.81c-0.302-0.178-0.57-0.275-0.811-0.291c-0.236-0.013-0.463,0.04-0.678,0.166
		c-0.217,0.121-0.451,0.299-0.704,0.53c-0.271,0.336-0.27,0.644,0.004,0.915l3.198,3.214c0.547,0.551,1.156,0.49,1.828-0.178
		c0.547-0.547,0.93-1.032,1.147-1.47c0.221-0.434,0.322-0.862,0.306-1.291c-0.016-0.43-0.133-0.879-0.348-1.345
		c-0.217-0.474-0.498-1.012-0.84-1.627l0.9-0.624l3.164,3.932l-7.814,7.769l-0.719-0.721c0.809-0.802,0.881-1.534,0.219-2.198
		l-7.59-7.631c-0.854-0.858-1.717-0.854-2.588,0.012l-0.75-0.757l7.718-7.68l0.042,0.04l2.115-2.579l12.045,0.672l-4.818-3.947
		c-1.262-1.036-2.297-1.061-3.106-0.072l-0.826-0.677l2.981-3.635l0.826,0.676c-0.73,0.891-0.463,1.85,0.8,2.883l9.769,8.008
		L253.29,229.145z M259.392,219.8c-0.096,0.588-0.314,1.134-0.656,1.648c-0.636,0.959-1.347,1.66-2.13,2.093
		c-0.783,0.438-1.617,0.664-2.5,0.681c-0.882,0.012-1.796-0.158-2.737-0.522c-0.945-0.36-1.902-0.862-2.871-1.506
		c-1.037-0.688-1.936-1.405-2.699-2.154c-0.763-0.753-1.338-1.519-1.723-2.315c-0.387-0.794-0.563-1.604-0.53-2.426
		c0.03-0.821,0.322-1.647,0.874-2.481c0.16-0.238,0.354-0.485,0.576-0.732s0.465-0.474,0.73-0.688
		c0.267-0.211,0.549-0.385,0.848-0.53c0.3-0.142,0.605-0.23,0.917-0.268c-0.349-0.611-0.451-1.214-0.304-1.817
		c1.395,0.381,3.117,1.251,5.164,2.607l-0.732,1.105c-1.551-0.648-2.771-0.939-3.67-0.871c-0.895,0.065-1.6,0.482-2.109,1.251
		c-0.356,0.534-0.494,1.073-0.415,1.615c0.079,0.539,0.302,1.065,0.663,1.592c0.363,0.518,0.841,1.028,1.434,1.53
		c0.592,0.498,1.219,0.963,1.879,1.4c0.902,0.604,1.775,1.117,2.613,1.555c0.838,0.434,1.619,0.732,2.346,0.898
		c0.729,0.162,1.387,0.166,1.977,0.009c0.588-0.154,1.078-0.526,1.469-1.118c0.51-0.769,0.664-1.582,0.462-2.449
		c-0.204-0.862-0.792-1.891-1.765-3.081l0.772-0.465c0.549,0.574,0.996,1.174,1.343,1.789c0.348,0.619,0.586,1.235,0.721,1.854
		C259.468,218.622,259.485,219.222,259.392,219.8z M261.866,215.938l-0.9-0.479c0.534-1.008,0.389-1.729-0.439-2.166l-9.508-5.046
		c-1.07-0.567-1.893-0.31-2.467,0.773l-0.943-0.5l5.104-9.617l4.267,2.093l-0.435,1.079c-0.839-0.316-1.519-0.492-2.04-0.526
		c-0.523-0.032-0.949,0.032-1.286,0.198c-0.334,0.168-0.611,0.413-0.829,0.741c-0.221,0.327-0.443,0.702-0.668,1.127
		c-0.197,0.368-0.279,0.69-0.252,0.964c0.029,0.271,0.17,0.478,0.426,0.611l3.752,1.992c0.343,0.182,0.582,0.144,0.717-0.114
		c0.143-0.269,0.252-0.525,0.328-0.771c0.075-0.245,0.083-0.494,0.026-0.749c-0.059-0.251-0.206-0.515-0.447-0.783
		c-0.241-0.273-0.609-0.562-1.104-0.867l0.516-0.972l5.717,3.035l-0.517,0.972c-0.504-0.225-0.925-0.377-1.267-0.458
		c-0.341-0.081-0.628-0.093-0.859-0.036c-0.23,0.057-0.433,0.176-0.601,0.356c-0.171,0.184-0.341,0.421-0.517,0.714
		c-0.158,0.403-0.066,0.694,0.275,0.875l4.004,2.123c0.687,0.364,1.251,0.13,1.694-0.708c0.362-0.683,0.583-1.264,0.664-1.741
		c0.081-0.479,0.051-0.923-0.091-1.326c-0.143-0.406-0.387-0.799-0.73-1.182c-0.345-0.385-0.773-0.82-1.283-1.306l0.678-0.864
		l4.182,2.821L261.866,215.938z M269.051,201.839c-0.302,0.347-0.688,0.6-1.158,0.758c0.109,0.319,0.192,0.642,0.251,0.961
		c0.059,0.318,0.083,0.636,0.075,0.947c-0.579-0.081-1.147-0.202-1.7-0.368c-0.553-0.164-1.113-0.364-1.678-0.604
		c-0.387-0.162-0.764-0.332-1.131-0.508c-0.363-0.172-0.729-0.366-1.097-0.575l0.478-1.138c0.492,0.209,1.013,0.369,1.561,0.484
		c0.547,0.113,1.08,0.151,1.598,0.107c0.518-0.043,0.986-0.185,1.404-0.428s0.733-0.613,0.943-1.115
		c0.191-0.455,0.288-0.864,0.292-1.227c0.004-0.36-0.065-0.687-0.206-0.972c-0.143-0.285-0.34-0.532-0.596-0.743
		c-0.253-0.208-0.543-0.382-0.87-0.522c-0.522-0.218-1.002-0.297-1.439-0.236c-0.439,0.063-0.862,0.289-1.273,0.68
		c-0.613,0.575-1.196,1.1-1.751,1.565c-0.557,0.466-1.14,0.827-1.746,1.085c-0.609,0.257-1.256,0.387-1.939,0.389
		c-0.685-0.002-1.449-0.181-2.3-0.537c-0.64-0.272-1.177-0.611-1.609-1.02c-0.433-0.409-0.759-0.851-0.978-1.326
		c-0.221-0.478-0.332-0.974-0.334-1.49c-0.002-0.516,0.102-1.018,0.308-1.508c0.181-0.431,0.455-0.802,0.823-1.115
		c0.369-0.31,0.847-0.5,1.438-0.566c-0.242-0.253-0.41-0.543-0.502-0.871c-0.089-0.325-0.129-0.629-0.113-0.912
		c0.787,0.125,1.642,0.359,2.559,0.698c0.917,0.34,1.779,0.678,2.583,1.016l-0.508,1.209c-0.636-0.16-1.229-0.271-1.777-0.341
		c-0.551-0.066-1.047-0.072-1.492-0.02c-0.443,0.055-0.815,0.172-1.121,0.352c-0.304,0.181-0.524,0.434-0.662,0.76
		c-0.286,0.676-0.33,1.275-0.138,1.795c0.194,0.521,0.572,0.901,1.14,1.138c0.403,0.168,0.759,0.245,1.067,0.223
		c0.307-0.021,0.613-0.111,0.916-0.273c0.307-0.155,0.617-0.378,0.939-0.661c0.322-0.284,0.687-0.598,1.098-0.945
		c0.465-0.396,0.912-0.749,1.344-1.063c0.43-0.312,0.887-0.54,1.371-0.688c0.48-0.146,1.012-0.192,1.586-0.145
		c0.577,0.053,1.254,0.241,2.029,0.569c0.744,0.313,1.367,0.69,1.869,1.127c0.5,0.438,0.881,0.92,1.141,1.45
		c0.261,0.528,0.395,1.083,0.4,1.67c0.008,0.585-0.113,1.176-0.364,1.771C269.597,201.106,269.354,201.495,269.051,201.839z"/>
	<path fill="#0C4994" d="M80.753,60.632c0.198,0.132,0.449,0.149,0.664,0.051c0.122-0.059,0.211-0.166,0.245-0.296
		c0.061-0.232,0.079-0.474,0.049-0.712c-0.055-0.458-0.122-0.918-0.197-1.373c-0.069-0.421-0.026-0.854,0.124-1.251
		c0.063-0.17,0.164-0.319,0.293-0.441c0.17-0.159,0.29-0.364,0.344-0.591c0.055-0.217-0.022-0.445-0.196-0.587
		c-0.127-0.107-0.279-0.183-0.441-0.223c-0.232-0.057-0.478,0-0.664,0.147c-0.22,0.176-0.382,0.417-0.465,0.687
		c-0.134,0.439-0.217,0.893-0.245,1.35c-0.018,0.284-0.257,0.5-0.541,0.492c-0.259-0.008-0.518,0.032-0.761,0.122
		c-0.326,0.121-0.692,0.055-0.958-0.171c-0.187-0.161-0.403-0.277-0.638-0.344c-0.194-0.057-0.35-0.202-0.417-0.393
		c-0.042-0.117-0.059-0.243-0.051-0.368c0.021-0.26,0.069-0.515,0.148-0.762c0.081-0.255,0.162-0.506,0.245-0.761
		c0.085-0.255-0.045-0.534-0.294-0.636c-0.083-0.036-0.151-0.098-0.196-0.174c-0.127-0.223-0.328-0.393-0.564-0.49
		c-0.166-0.066-0.353-0.061-0.522,0.017c-0.093,0.036-0.198-0.009-0.237-0.102c-0.085-0.215-0.229-0.4-0.415-0.538
		c-0.113-0.081-0.192-0.205-0.221-0.343c-0.044-0.212,0.055-0.431,0.245-0.536c0.152-0.087,0.265-0.227,0.318-0.393
		c0.091-0.283,0.063-0.591-0.073-0.856c-0.245-0.474-0.597-0.885-1.028-1.198c-0.1-0.07-0.227-0.091-0.342-0.049
		c-0.267,0.096-0.557,0.113-0.832,0.049c-0.125-0.03-0.217-0.14-0.221-0.27c-0.006-0.194-0.014-0.391-0.024-0.587
		c-0.018-0.358-0.042-0.717-0.073-1.077c-0.02-0.242-0.105-0.481-0.245-0.684c-0.051-0.073-0.154-0.094-0.227-0.041
		c-0.018,0.013-0.03,0.024-0.042,0.041c-0.144,0.208-0.212,0.457-0.196,0.71c0.042,0.662,0.172,1.314,0.385,1.941
		c0.19,0.071,0.315,0.253,0.313,0.456c-0.002,0.304,0.014,0.604,0.049,0.908c0.061,0.511,0.01,1.028-0.148,1.521
		c-0.109,0.347-0.064,0.721,0.124,1.03c0.125,0.207,0.265,0.403,0.417,0.589c0.518,0.632,1.077,1.229,1.67,1.792
		c0.844,0.797,1.664,1.623,2.456,2.478c0.494,0.53,1.119,0.923,1.816,1.13C79.741,60.063,80.27,60.31,80.753,60.632z"/>
</g>
</svg>
